<?xml version="1.0" encoding="utf-8"?>
<!-- Generator: Adobe Illustrator 19.1.0, SVG Export Plug-In . SVG Version: 6.00 Build 0)  -->
<svg version="1.1" id="Layer_1" xmlns="http://www.w3.org/2000/svg" xmlns:xlink="http://www.w3.org/1999/xlink" x="0px" y="0px"
	 viewBox="0 0 144 141.2" style="enable-background:new 0 0 144 141.2;" xml:space="preserve">
<style type="text/css">
	.st0{fill-rule:evenodd;clip-rule:evenodd;fill:#4F2D10;}
	.st1{fill-rule:evenodd;clip-rule:evenodd;fill:#FFFFFF;}
</style>
<g>
	<path class="st0" d="M144,70.6c0,39-32.2,70.6-72,70.6S0,109.6,0,70.6C0,31.6,32.2,0,72,0S144,31.6,144,70.6z"/>
	<g>
		<path class="st1" d="M88.7,66.1c-0.3-0.3-0.3-0.5-0.1-0.9C88.9,65.5,88.9,65.7,88.7,66.1z"/>
		<path class="st1" d="M90.4,76c-0.1-0.2-0.2-0.2-0.2-0.2c0.1-0.3-0.2-0.7,0-1c0,0,0.2,0,0.2,0C90.5,75.2,90.6,75.6,90.4,76z"/>
		<path class="st1" d="M92.2,77c-0.1-0.3-0.2-0.6-0.3-0.9c0-0.4-0.4-0.7-0.1-1.2c0.2,0.3,0.3,0.6,0.4,0.8c0.1,0.3,0.2,0.6,0.3,0.9
			c0.1,0.5,0.6,1,0.6,1.6C92.4,77.9,92.4,77.4,92.2,77z"/>
		<path class="st1" d="M104.2,44c0.2,0,0.4-0.1,0.5-0.2c0.2-0.2,0.3,0,0.4,0.1c0,0.2-0.1,0.2-0.3,0.3c-0.2,0.1-0.4,0.1-0.5,0.2
			c-0.2,0.1-0.4,0.3-0.5,0C103.7,44.1,104,44,104.2,44z"/>
		<g>
			<path class="st1" d="M45.8,96.1c-0.1,0-0.1,0-0.4-0.1c0.3,0.6,0.5,1.1-0.4,0.9c-0.1,0-0.2,0.1-0.2,0.2c0,0.1,0.1,0.2,0.2,0.3
				c0.5,0.1,1.1,0.1,1.3-0.3C46.6,96.7,46.1,96.4,45.8,96.1z"/>
			<path class="st1" d="M58.9,91.5c-0.5,0.1-0.9,0.3-1.4,0.3c-0.1-0.3-0.1-0.3-0.5-0.2c-1,0.1-2.1,0.5-3.1-0.1c-0.1,0-0.1,0-0.2,0
				c0,0,0,0,0,0c0,0-0.1,0-0.1,0l0,0c0.3-0.3,0.8-0.6,1-0.3c0.2,0.2,0.2,0.4,0.4,0.2c0.1-0.1,0.1-0.4,0.1-0.6c0-0.1-0.3-0.2-0.5-0.1
				c-0.4,0.2-0.7-0.2-1.1-0.2c0.3-0.3,0.8-0.4,1.2-0.5c0,0,0,0,0-0.1c0,0,0,0,0.1,0.1c0.5,0,0.9,0,1.4-0.1c0.2,0,0.4,0,0.4-0.2
				c0-0.2-0.2-0.2-0.4-0.2c-0.5,0-1.1,0.3-1.6,0.1c0.2-0.1,0.6-0.1,0.3-0.5c-0.2-0.3-0.3,0-0.5,0.1c0,0,0,0.1,0,0.1
				c0,0,0-0.1-0.1-0.1c-0.9-0.2-1.8-0.1-2.6,0.1c-1.1,0.3-2.3-0.2-3.5,0c-0.9,0.2-1.8,0-2.8,0.2c-1.4,0.3-2.9,0.1-4.3,0.2
				c-2,0.2-3.9,0.3-5.9,0.5c-2.2,0.2-4.5,0.3-6.7,0.5c-0.4,0-0.5-0.1-0.5-0.5c0.1-0.8,0.2-1.6,0.3-2.4c0.3-3.6,0.8-7.1,1.4-10.6
				c0.2-1.3,0.7-2.5,0.5-3.8c-0.1-0.8,0-1.5,0.1-2.2c0-0.3,0.1-0.5,0.1-0.8c0.6-3.4,1.3-6.8,1.9-10.3c0,0,0-0.1,0.1-0.1
				c0,0,0,0.1,0,0.1c0,0.1,0.1,0.2,0.1,0.3c0,0.1,0.1,0.3,0.3,0.2c0.2-0.1,0.4-0.3,0.3-0.5c-0.1-0.3,0-0.6,0.2-0.9
				c0.4-0.5,0.4-0.9-0.1-1.3c-0.2-0.2-0.3-0.4-0.3-0.6c-0.1,0.1-0.1,0.2-0.1,0.4c0-0.1,0-0.2,0.1-0.4c0-0.1,0.1-0.2,0.1-0.2
				c0.9,0.7,0.5-0.2,0.6-0.5c0.1-0.2,0-0.5,0.1-0.6c0.3-0.4,0.1-1.1,0.6-1.3c0.4-0.2,0.5-0.5,0.6-0.9c0.6-2.9,1.1-5.7,1.5-8.6
				c0-0.3,0.1-0.6,0.2-0.8c0.5-1.2,0.5-2.4,0.9-3.7c0.1-0.4,0.1-0.8,0.1-1.2c0-1.1-0.7-1.6-1.8-1.5c-0.2,0-0.3,0-0.4-0.1
				c-1.1-0.7-2.3-0.5-3.4-0.7C30.8,37,29.9,37,29,36.7c-0.6-0.2-1.1,0.1-1.7,0.2c-0.4,0.1,0,0.6-0.1,0.8c0,0,0,0,0,0.1
				c-0.5,1.1-0.6,2.3-0.8,3.5c-0.2,1.8-0.3,3.6-0.6,5.4c-0.7,4.8-1.4,9.6-2.2,14.5c-0.2,1.5-0.2,3.1-1,4.5c-0.1,0.2-0.2,0.4-0.3,0.7
				c-0.5,3.5-1.1,7.1-1.6,10.6c-0.7,4.8-1.4,9.6-2.1,14.4c-0.1,0.7-0.5,1-1.2,1.1c-0.4,0.1-0.8,0.1-1,0.4c-0.7,0.9-0.1,2.6,0.9,3
				c-0.1,0.2-0.6,0-0.5,0.4c0.2,0.6-0.3,1.4,0.3,1.9c0.1,0.1-0.1,0.3,0,0.4c0.1,0.3-0.2,0.7,0.1,0.8c0.6,0.3,1.1,0.9,1.9,0.7
				c1.9-0.5,3.9-0.2,5.9-0.3c0.8,0,1.6,0.2,1.9-0.8c0,0,0,0,0-0.1c0,0,0,0,0.1,0.1c0,0,0.1,0,0.1,0c1.4,0.1,2.7-0.1,4-0.3
				c0.1,0,0.1,0,0.2,0c0.5,0,1,0,1.5,0c0.5-0.3,1.2,0,1.6-0.4c0.4,0,0.8,0,1.2,0c0.4,0.1,0.7,0.1,0.9-0.3c0,0,0.1,0,0.1,0
				c0.1,0.2,0.3,0.3,0.6,0.2c0.8,0,1.6-0.4,2.4-0.2c0.2,0.1,0.2-0.2,0.2-0.3c0,0,0,0,0,0l0,0c0.3,0.2,0.6,0.1,0.9,0
				c0,0.2,0,0.3,0.2,0.3c0.5-0.1,1-0.3,1.4-0.7c0.2,0,0.4,0,0.6-0.2c0.1,0,0.2,0,0.3,0c0.3,0.4,0.5-0.2,0.7-0.1
				c0.2-0.1,0.4-0.1,0.4-0.3c0-0.3-0.3-0.1-0.5-0.1c-0.2,0-0.3,0-0.5,0c0-0.1,0-0.1,0-0.2c0,0,0,0-0.1,0c0.2-0.2,0.5-0.1,0.7-0.1
				c0.6,0,0.1-0.5,0.3-0.7c-0.3,0-0.4-0.1-0.3-0.4c0.1-0.3,0.4-0.3,0.6-0.3c1-0.1,2-0.2,2.9-0.3c0.1,0,0.1,0,0.2-0.1c0,0,0,0,0,0
				c0,0,0,0-0.1,0c0.4,0.1,0.9,0,1.3-0.1c0.6-0.1,1.1-0.1,1.7-0.2c0.4-0.1,0.9,0.2,1.3-0.1c0.5-0.1,1,0.1,1.5-0.1
				c0.2,0,0.5,0.2,0.7-0.1c0.1-0.1,0.1-0.2,0.1-0.3c-0.1-0.2-0.3-0.2-0.5-0.2c-0.3,0-0.2,0.4-0.4,0.5c-0.3-0.3-0.7-0.4-1.1-0.2
				c-0.2,0.1-0.3,0.1-0.5,0.1c0,0,0,0.1,0.1,0.1c0,0-0.1,0-0.1-0.1c-0.3-0.3-0.3-0.3-0.6-0.1c-0.1,0-0.2,0-0.3,0
				c-0.2,0-0.4-0.1-0.6,0.1c-0.2,0-0.3,0.1-0.4-0.1c0-0.1,0-0.1,0-0.2c0.2-0.1,0.3-0.2,0.3-0.4c0,0,0,0,0,0c0.5-0.3,1.1-0.5,1.7-0.4
				c0.8,0,1.6,0.1,2.4-0.3c0,0,0,0,0-0.1c0,0,0,0,0,0.1c0.6-0.1,1.3,0.1,1.9-0.4c0.3-0.2,0.8-0.3,1.2,0.1c0.9,0.2,1.7-0.4,2.7-0.1
				C59.5,91.7,59.5,91.5,58.9,91.5z"/>
			<path class="st1" d="M56.3,90.7c0,0.3,0.4,0.2,0.5,0.2c0.4-0.1,0.8-0.2,1.2,0.2c0.1,0.1,0.3,0.1,0.4-0.1
				c-0.1-0.3-0.2-0.5-0.6-0.5c-0.3,0-0.7,0-1,0C56.6,90.5,56.3,90.4,56.3,90.7z"/>
			<path class="st1" d="M32.1,64.7c0.3-0.4,0.5-0.8,0.4-1.4c0-0.1-0.1-0.2-0.2-0.2c-0.1,0-0.1,0.1-0.1,0.1
				C32.3,63.8,31.9,64.2,32.1,64.7z"/>
			<path class="st1" d="M56.8,89.7c0.6,0,1.3,0,1.9-0.3C58.1,89.2,57.4,89.4,56.8,89.7z"/>
			<path class="st1" d="M47.8,96.7c-0.2,0-0.4,0.1-0.4,0.3c0,0.2,0.2,0.2,0.3,0.2c0.2-0.1,0.4,0.1,0.5-0.2
				C48.2,96.7,48,96.7,47.8,96.7z"/>
		</g>
		<path class="st1" d="M44.1,68c-0.1,0-0.1,0-0.2,0c0,0.7-0.1,1.5-0.1,2.2C44.2,69.5,44,68.8,44.1,68z"/>
		<path class="st1" d="M44.9,80.7c-0.1,0-0.3,0.2-0.3,0.3c-0.1,0.2-0.1,0.5-0.2,0.8c0.2-0.2,0.3-0.5,0.5-0.5c0.2,0,0.4,0,0.3-0.2
			C45.2,81,45.2,80.7,44.9,80.7z"/>
		<path class="st1" d="M48,81.3c-0.1,0-0.1,0.3-0.1,0.4c0.2,0.4,0.6,0.2,0.9,0.1C48.5,81.6,48.4,81.2,48,81.3z"/>
		<path class="st1" d="M43.9,80.5c-0.1-0.1-0.2-0.3-0.3-0.5c0,0.3-0.1,0.4-0.1,0.6c0,0.3,0.2,0.3,0.3,0.4c0.2,0.1,0.3,0,0.3-0.2
			C44.3,80.5,44,80.6,43.9,80.5z"/>
		<path class="st1" d="M74.6,86.9c0,0,0,0.1,0,0.1c0,0.1,0,0.1,0,0.2C74.6,87.2,74.6,87,74.6,86.9z"/>
		<path class="st1" d="M76.6,45.5C76.6,45.5,76.6,45.5,76.6,45.5L76.6,45.5C76.6,45.5,76.6,45.5,76.6,45.5z"/>
		<path class="st1" d="M74.6,86.7C74.6,86.7,74.6,86.7,74.6,86.7C74.6,86.8,74.6,86.8,74.6,86.7C74.6,86.8,74.6,86.7,74.6,86.7z"/>
		<path class="st1" d="M74.6,86.5c0-0.2,0-0.4,0.1-0.7C74.7,86.1,74.6,86.3,74.6,86.5C74.6,86.5,74.6,86.5,74.6,86.5
			C74.6,86.6,74.6,86.5,74.6,86.5z"/>
		<path class="st1" d="M74.8,84.8c0-0.1,0-0.2,0-0.3C74.8,84.6,74.8,84.7,74.8,84.8z"/>
		<path class="st1" d="M73.2,87.8c-0.1,0.3,0,0.7-0.2,1c-0.1-0.3,0-0.5-0.2-0.8c0-0.1,0-0.2,0-0.3c0-0.2,0-0.5,0.2-0.5
			C73.4,87.4,73.3,87.6,73.2,87.8z"/>
		<path class="st1" d="M85.1,39.4c-0.9-1.6-1.9-3.1-3.3-4.4c-0.5-0.4-1-0.8-1.7-1c-0.2-0.1-0.6-0.2-0.7,0c-0.3,0.5-0.5,0.2-0.7,0
			c-1.3-0.9-1.3-0.9-2.2,0.3c-0.1,0.2-0.3,0.3-0.4,0.5c0,0,0.1,0,0.1,0c-0.4,0.7-0.8,1.3-1.2,2c-0.3,0.9-1,1.6-1.4,2.5
			c-0.2,0.4-0.7,0.7-0.8,1.2l0,0l0,0c-0.2,0.8-0.7,1.5-1.1,2.2c-0.1,0.3-0.3,0.3-0.6,0.2c0,0-0.1,0-0.1,0c-0.1,0.3-0.1,0.6-0.2,1
			c0,0.2-0.1,0.5-0.4,0.2c-0.1,0.1-0.1,0.2-0.2,0.4c-0.1,0.1-0.1,0.4-0.3,0.3c-0.3-0.1,0-0.3,0-0.5c-0.1,0-0.2,0-0.3,0
			c0,0,0-0.1,0-0.1c0,0-0.1,0.1-0.1,0.1c-0.8,0.5-1,1.4-1.6,2.1c-0.1,0.1-0.1,0.3,0,0.5c0.1,0.5,0.1,0.5-0.3,0.4
			c-0.2,0-0.3,0-0.3,0.1c-0.3,0.6-0.7,1.1-0.9,1.7c-0.1,0.1-0.7,0.6,0.1,0.6c0.1,0,0.1,0.2,0,0.3c-0.2,0.5-0.5,0.3-0.7,0.1
			c-0.7-0.5-0.6-1.4-0.8-2.1c-0.4-1.5-0.6-3-0.9-4.5c-0.7-3-1.4-5.9-3.9-8c-0.9-0.7-1.9-1.3-3-1.6c-0.1,0-0.4-0.1-0.5,0
			c-0.2,0.5-0.4,0.2-0.6,0.1c-0.5-0.2-0.8-0.7-1.4-0.8c-0.9-0.1-1.3,0.5-1.9,0.9c-0.6,0.4-0.7,1-0.5,1.5c0.2,0.8,0,1.5-0.3,2.3
			c-0.6,1.4-1.5,2.6-1.8,4.3c-0.5,3.1-1,6.2-1.8,9.3c-1.1,4.3-1.6,8.8-2.6,13.1c-0.2,0.8,0,1.7-0.3,2.4c-0.3,0.9-0.4,1.7-0.4,2.6
			c0,0.4-0.4,0.2-0.3,0.6c0.3,1.4-0.8,2.5-0.9,3.9c0,0.3-0.1,0.9-0.4,1.2c-0.1-0.1-0.1-0.2-0.1-0.3c0-0.1,0.1-0.2,0.1-0.3
			c0.3-1.2,0.3-2.3,0.3-3.5c-0.2,0.7-0.2,1.3-0.3,2c0,0.5-0.1,1-0.2,1.5c-0.3,0.1,0,0.4-0.2,0.6c-0.3,1.1,0,2.2-0.7,3.2
			c0,0.1,0,0.2,0,0.3c0,0,0,0,0,0c-0.4,0.2-0.2,0.7-0.4,1c0,0.1,0.1,0.2,0.2,0.3c0.2,0,0.3-0.1,0.3-0.2c0.1-0.3,0.2-0.6,0.2-0.9
			c0.1,0.2,0.2,0.4,0.5,0.1c0-0.1,0.4,0,0.4,0.3c0,0.2-0.2,0.5,0.2,0.4c0.3-0.1,0.3-0.3,0.1-0.5c-0.4-0.6,0.5-0.7,0.5-1.1
			c0.5,0,0.3,0.5,0.5,0.8c0.1,0.1,0.2,0.3,0.1,0.4c-0.2,0.6,0,0.9,0.6,0.8c0.2,0,0.3,0.1,0.3,0.2c-0.2,0.7,0.6,0,0.6,0.4
			c0.3,0,0.2-0.3,0.2-0.5c0-0.1,0-0.3,0.2-0.3c0.1,0.2,0.4,0.5,0.3,0.8c-0.1,0.2,0.1,0.3,0.1,0.2c0.2-0.3,0.7,0.1,0.9-0.3
			c0.1-0.1,0.1-0.3,0.3-0.2c0.1,0.1,0.2,0.2,0.1,0.4c-0.1,0.3,0.2,0.5,0.4,0.6c0.3,0.1,0.1-0.4,0.3-0.5c0.2,0.1,0.4,0.3,0.5,0.4
			c0.1,0.1,0.3,0,0.3-0.1c-0.4-0.7,0.3-0.5,0.7-0.7c-0.6-0.2-0.4-0.7-0.6-1c-0.1-0.2,0.1-0.4,0.3-0.3c0.5,0.2,0.9-0.2,1.4-0.3
			c-0.6-0.3-0.8-0.6-0.5-1.1c0.2,0.1,0,0.5,0.3,0.3c0.2-0.1,0.3-0.3,0.3-0.5c0.1-1,0.2-1.9,0.4-2.9c0.4-3.1,0.8-6.3,1.3-9.4
			c0.1-0.9,0-1.9,0.2-2.8c0.5-1.8,0.5-3.7,0.9-5.5c0.5-2.3,0.8-4.7,1.2-7.1c0-0.2,0.1-0.4,0.3-0.4c0.3,0,0.2,0.2,0.3,0.4
			c0,0.4,0,0.7,0.1,1.1c0.4,2.2,1.2,4.2,2.2,6.1c0.3,0.7,0.5,1.3,0.5,2c0.1,1,0.2,2,0.6,2.9c0.2,0.4,0.3,0.8,0.8,1
			c1,0.5,2,1.2,3.2,1.4c0.8,0.1,1.6,0.3,2.2-0.5c0.1,0,0.1-0.1,0.2-0.1c0.1-0.3,0.1-0.7,0.5-0.9c0.3-0.2-0.2-0.4,0.1-0.8
			c0.4-0.4,0.8-0.7,1.2-1.1c0.1-0.1,0.2-0.3,0.3-0.4c0,0,0,0,0,0c-0.3-0.1-0.5,0.1-0.6,0.4c-0.1,0.1-0.2,0.3-0.4,0.2
			c-0.2-0.1-0.1-0.3,0-0.5c0.2-0.2,0.3-0.4,0.5-0.6c0.5-0.7,0.9-1.5,1.5-2.2c-0.3-0.1-0.4-0.2-0.2-0.5c0.9-1.5,2-2.9,2.6-4.6
			c0.1-0.3,0.4-0.3,0.6-0.5c0.4-0.6,0.8-1.2,1-1.9c0.1-0.5,0.4-1,0.9-1.3c0.2-0.4,0.5-0.8,0.7-1.2c0.1-0.2,0.2-0.3,0.3-0.5
			c0.1-0.9,0.8-1.5,1.1-2.2h0h0c-0.2,0-0.3,0-0.2-0.3c0.2-0.7,0.4-1.3,0.8-1.9c0.3,0.2,0.3,0.4,0.1,0.7c0.3,0.5-0.2,0.9-0.1,1.3
			c0,0.1,0,0.1,0,0.2c0,0.5-0.1,0.9-0.4,1.2c-0.4,0.5-0.2,1.1-0.5,1.7c0.2,0.4-0.2,0.7-0.3,1c0,0-0.1,0.1-0.1,0.1c0.3,1,0,2-0.1,3
			c-0.5,3-0.9,5.9-1.4,8.9c-0.3,1.8-0.5,3.7-0.8,5.5c0,0.2,0,0.4,0,0.5c0-0.2,0.1-0.4,0.1-0.5c0.1,0.6,0.3,1.1-0.2,1.6
			c0-0.1-0.1-0.2-0.1-0.2c0,0.1,0,0.2-0.1,0.2c-0.1,0.6-0.2,1.3-0.3,1.9c-0.1,0.7-0.1,1.3-0.1,2c0,1.2,0.2,2.4-0.1,3.6
			c-0.3,1.1-0.4,2.4-0.1,3.6c0,0,0,0.1,0,0.1c0,0,0.1-0.1,0.2-0.1c-0.2,1.2,0.1,2.3,0,3.5c0,0.3,0,0.6-0.4,0.6c0-0.1,0-0.1,0-0.2
			c0,0.1-0.1,0.1-0.1,0.2c0,0.8,0.3,1.5,0.1,2.3c-0.2,0.8-0.2,1.6-0.2,2.4c0.1,0,0.1,0,0.1,0c0.1-0.1,0.1-0.2,0.2-0.4
			c0.3,0.2,0.3,0.2,0.2,0.8c0,0.6-0.2,1.1,0.2,1.8c0-0.7,0.3-1.2,0.5-1.8c0.3,0.2,0.1,0.5,0.4,0.6c0.2-0.1,0-0.5,0.2-0.6
			c0,0,0.1,0,0.1-0.1c0-0.1-0.1-0.3,0.1-0.4c0-0.3,0.1-0.7,0.1-1c0-0.1,0-0.2,0-0.3c0-0.1,0-0.2,0-0.3c0-0.1,0-0.2,0-0.3
			c0-0.2,0-0.4,0.1-0.6c0-0.2,0-0.5,0.1-0.7c0-0.1,0-0.1,0-0.2c0-0.2,0-0.3,0.1-0.5c0.1-0.9,0.1-1.8,0.5-2.6c0.1,0,0.1,0,0.2,0
			c-0.2,1.1-0.3,2.1-0.5,3.2c-0.1,0.5-0.1,1.1-0.2,1.6c0,0.1,0,0.2,0,0.3c0,0,0,0.1,0,0.1c-0.1,0.5,0.5,0.9,0.1,1.4
			c0,0.2,0,0.5,0,0.7c0.8-0.4,0.7-1.2,0.8-1.8c0-0.2,0.1-0.4,0.1-0.6c0-0.2,0.1-0.4,0.1-0.7c0.2-1.3,0.4-2.7,0.6-4
			c0-0.5,0.1-1,0.2-1.4c0-0.2,0.1-0.5,0.1-0.7c0-0.2-0.1-0.6,0.2-0.5c0.4,0.1,0.1,0.4,0.1,0.6c-0.3,2.1-0.6,4.2-0.9,6.4
			c-0.1,0.5-0.2,0.9-0.2,1.4c0,0,0,0,0.1,0.1c0.3-0.5,0.5-1,0.5-1.6c0.1-1.4,0.6-2.8,0.7-4.2c0-0.1,0.1-0.1,0.1-0.1
			c0-0.2,0-0.5,0.2-0.6c0.2,0.1,0.3,0.3,0.4,0.4c-0.1-0.5-0.2-1.1,0.1-1.6c0.2-0.3,0.2-0.6,0.2-0.9c-0.1-0.5,0.1-0.7,0.4-1
			c0,0,0-0.1,0-0.1c-0.4-0.5,0.1-1.1,0.1-1.5c0-0.2,0.7-0.3,1.1-0.5c0.1,0.4-0.6,0.5-0.2,0.7c0.3,0.2,0.6-0.1,0.7-0.5
			c0-0.1,0-0.1,0.1-0.2c0.1-0.2,0.2-0.4,0.2-0.5c0.7-2.4,0.7-4.9,1-7.3c0.2-2,0.5-4.1,0.7-6.1c0.2-1.6,0.6-3.3,0.6-4.9
			c0.1-1.7,0.3-3.3,0.5-5c0.6-3.4,1.3-6.9,1.2-10.4c0-0.2,0.1-0.4,0.1-0.6C85,40.7,85.4,40,85.1,39.4z M77.5,41.4
			c-0.6,0.6-0.7,1.4-1.1,2.1c-0.6,1.2-1.2,2.3-2,3.4c-0.6,0.9-0.9,1.9-1.7,2.7c-0.4,0.4-0.4,1.2-0.8,1.8c-0.2,0.2-0.2,0.6-0.6,0.6
			c0-0.9,0.5-1.5,0.8-2.3c0.3-0.7,0.7-1.3,1-2c0.1-0.3,0.4-0.2,0.5-0.5c0.5-1.2,1.1-2.4,1.8-3.5c0.4-0.6,0.6-1.4,1.2-1.9
			c0.4-0.3,0.2-0.7,0.5-1C77.4,41,77.8,41.1,77.5,41.4z"/>
		<path class="st1" d="M127.9,61.2c0.1-0.6-0.2-1.2-0.2-1.8c-0.1-1.7-0.6-3.3-0.9-4.9c-0.1-0.4,0-0.9-0.2-1.3
			c-0.9-1.5-1.5-3.1-2.3-4.6c0,0-0.1-0.1-0.1-0.1c-0.5-0.3-1-0.6-1.3-1.2c-0.4-0.4-0.6-0.9-1-1.4c-0.2-0.2-0.4-0.3-0.6-0.4
			c-0.3-0.1-0.4-0.3-0.6-0.5c-1.6-1.5-3.5-2.6-5.7-3.1c-3-0.7-5.9-0.1-8.9,0.6c-1.5,0.4-3,0.8-4.5,1.5c-0.3,0.1-0.6,0.5-0.9,0.5
			c-1.1-0.1-1.7,0.8-2.5,1.3c-0.1,0.1-0.2,0.1-0.2,0.2c0.1-0.1,0.2-0.2,0.4-0.2c-0.1,0.2-0.1,0.3,0.1,0.3c0.6-0.4,1.3-0.5,2-0.5
			c0.4,0,0.8-0.2,1.1-0.4c0.5-0.4,1.1-0.1,1.6-0.2c0.1,0,0.4,0,0.4,0.3c0,0.2-0.2,0.3-0.4,0.3c-1.1,0-1.9,0.9-2.8,1.3
			c0,0,0,0.1,0,0.1c-1.2-0.7-1.2,0.9-2,1.1c-0.2,0.1-0.4,0.3-0.7,0.4c0.1,0.5,0.3,0.9-0.5,1.3c-0.6,0.2-0.9,1.1-1.4,1.6
			c-0.5,0.9-1,1.9-1.6,2.6c-0.8,0.9-1.3,1.9-1.8,2.8c-0.6,1.1-0.9,2.3-1.2,3.5c0,0.2-0.1,0.4-0.3,0.5c0,0.4-0.1,0.8-0.5,1.2
			c-0.3,0.2-0.6,0.6-0.2,1.1c0.2,0.2-0.3,0.4-0.3,0.6c0,0.4,0,0.8-0.1,1.2c0.1,0.3,0.1,0.6-0.1,0.8c0,0-0.2,0-0.2,0
			c-0.1-0.3-0.3-0.6-0.1-0.9c0.1-0.2,0.2-0.4,0.2-0.6c0,0,0-0.1,0-0.1c0,0,0,0.1,0,0.1c0,0.1,0,0.2,0,0.4v0c0,0,0,0,0,0c0,0,0,0,0,0
			c0-0.1,0-0.2,0-0.4c0-0.1,0-0.1,0-0.2c-0.4-1.6,0.5-3.1,0.8-4.6c0.2-0.7,0.1-1.5,0.6-2.2c0.2-1.6,1.5-2.7,1.9-4.2
			c0.1-0.3,0.4-0.5,0.7-0.8c0-0.2,0.5-0.6-0.2-0.6c-0.3,0,0-0.2,0-0.4c-0.1,0-0.2-0.1-0.3-0.1c0,0,0-0.1,0.1-0.1
			c-0.1,0-0.2,0-0.3,0.1c-1,1.3-1.9,2.7-2.6,4.2c-0.2,0.2-0.2,0.5-0.2,0.7c0,0,0-0.1,0-0.1c0.1-0.2,0.1-0.5,0.3-0.6
			c0,0.3-0.3,0.6,0.2,0.7c0.1,0,0,0.3-0.1,0.4c-0.2,0.8-0.5,1.5-0.7,2.2c-0.1,0.2-0.1,0.5-0.4,0.5c-0.1,0-0.2,0-0.3,0
			c0,0,0-0.1,0-0.1c-0.1,0-0.1,0.1-0.2,0.1c-0.2,0.3-0.2,0.6-0.3,0.9c-0.2,1-0.4,2.1-0.6,3.1c-0.2,1.2-0.5,2.5-0.4,3.7
			c0.1,1.9,0.3,3.8,0.7,5.7c0.4,1.6,0.8,3.3,1.5,4.8c0.3,0.7,0.8,1.4,1.1,2.2c0.4,0.9,0.8,1.7,1.4,2.4c0.9,1,1.5,2.3,2.8,2.9
			c0.1,0,0.1,0.2,0.1,0.3c-0.2,0.6,0.3,0.8,0.7,1c0.5,0.3,1.1,0.5,1.7,0.8c0.6,0.3,1,0.7,1.6,0.9c0.3,0.2,0.7,0.4,0.9-0.2
			c0.1-0.3,0.3-0.2,0.5-0.2c0.7,0.1,1.3,0.3,2,0.4c0.8,0.1,1.5,0.2,2.3,0.1c0.7-0.1,1.2-0.1,1.9,0.2c0.3,0.1,0.6,0.2,0.9,0
			c0.5-0.2,1.1-0.1,1.6-0.2c0.7-0.1,1.5-0.2,2.2-0.4c0.4-0.2,0.9-0.4,1.3-0.5c1.1-0.3,2.1-0.8,3.2-1.2c0.7-0.3,1.5-0.7,2-1.2
			c1-1,2.1-1.8,3.1-2.8c0.2-0.2,0.4-0.5,0.5-0.8c0.1-0.3,0.3-0.6,0.5-0.8c0.6-0.5,0.8-1.2,1.1-1.9c1-1.6,1.6-4.2,1.7-4.4
			c0,0,0-0.1-0.3-0.1c-0.6,1.6-1.3,2.7-1.8,3.4c-0.1-0.1-0.1-0.3-0.1-0.4c-0.1-0.9,0.5-1.5,0.9-2.2c0.1-0.2,0.2-0.5,0.3-0.7
			c0,0,0,0,0,0c1.8-2.8,2.5-8.1,2.6-8.5c0,0,0,0-0.2-0.4c-0.9,4-1.8,6.2-2.3,7.2c0-0.1,0-0.1-0.1-0.2c0,0-0.1,0-0.1,0
			c1-2.2,0.9-3.5,0.9-3.5s0.1-0.2-0.3-0.1c-0.6,1.9-1.3,3.2-1.6,3.8c-0.1,0.1-0.2,0.2-0.4,0.2c0.1-0.8,0.6-1.3,0.7-2
			c0.1-1.2,0.3-2.5,1.4-3.3c0.1-0.1,0.1-0.2,0.1-0.3c-0.2-1.3,0.3-2.5,0.6-3.7c0,0-0.1,0-0.1,0c-0.1-0.1,0-0.2,0-0.2
			c0,0,0-0.1,0.1-0.1c0.2-0.2,0.5-0.1,0.7-0.3c0-0.1,0.1,0,0.1-0.1c0-0.1-0.1,0-0.1-0.1c-0.2-0.3-0.3-0.7,0-1
			c0.3,0.1,0.2,0.5,0.4,0.6c0.1,0.3,0,0.6-0.1,0.9c-0.1,0-0.1,0-0.2,0c0,0,0,0,0,0c0.1,0.5,0.3,0.9,0.9,0.9c-0.1,0.5-0.1,0.4,0,0.7
			c0.1,0,0.1,0.1,0.2-0.2c0,0.4-0.1,0.4,0.2,0.6c0.1,0.1,0.3,0.2,0.4,0.2c0,0,0,0,0,0v0C127.9,63.6,128,62.4,127.9,61.2z
			 M119.4,69.6c-0.2,0.4,0,0.8-0.2,1.2c-0.4,1.1-0.8,2.3-1.4,3.3c-0.4,0.6-0.8,1.2-1.5,1.5c-0.7,0.4-1.4,0.8-1.9,1.4
			c-0.3,0.3-0.7,0.5-1.1,0.6c-0.6,0.1-1.1,0.2-1.5,0.5c-0.8,0.4-1.7,0.3-2.5,0.5c-0.9,0.2-1.8,0.4-2.7,0.6c-0.3,0.1-0.3,0.6-0.7,0.7
			c0,0,0,0,0,0c0.1,0,0.1,0,0.2,0c-1,0.6-2,0.3-2.9,0c-0.5-0.2-0.9-0.6-1.3-1c-0.2-0.1-0.4-0.1-0.6-0.3c-0.1-0.1-0.3-0.4-0.5-0.3
			c-0.8,0.6-1.3-0.1-1.8-0.4c-0.4-0.3-0.8-0.7-1.2-1.2c-0.4-0.4-0.6-0.9-0.5-1.4c0.1-0.5-0.2-1-0.5-1.4c-1.7-2.4-1.6-5.2-1.8-7.9
			c-0.2-2.3,0.5-4.2,1.4-6.2c0.2-0.4,0.3-0.8,0.4-1.3c0.2-0.8,0.9-1.4,1.2-2.1c0.2-0.4,0.4-0.9,0.8-1.1c0.2-0.2,0.4-0.5,0.6-0.7
			c0.2-0.3,0.3-0.6,0.7-0.7c0,0,0,0,0.1-0.1c1.2-1.4,2.9-2.1,4.5-3c0.7-0.4,1.6-0.7,2.5-0.4c0.7,0.2,1.5,0,2.3,0.1
			c2.6,0,4.9,1,6.8,2.8c0.8,0.8,1.5,1.6,2.1,2.6c0.5,1,0.7,2.2,1,3.3c0.3,1.8,0.7,3.6,0.8,5.4C120.4,66.2,120.4,68,119.4,69.6z"/>
	</g>
</g>
</svg>
