<?xml version="1.0" encoding="utf-8"?>
<!-- Generator: Adobe Illustrator 19.1.0, SVG Export Plug-In . SVG Version: 6.00 Build 0)  -->
<!DOCTYPE svg PUBLIC "-//W3C//DTD SVG 1.1//EN" "http://www.w3.org/Graphics/SVG/1.1/DTD/svg11.dtd">
<svg version="1.1" id="Layer_1" xmlns="http://www.w3.org/2000/svg" xmlns:xlink="http://www.w3.org/1999/xlink" x="0px" y="0px"
	 viewBox="-413 355.6 184 88" style="enable-background:new -413 355.6 184 88;" xml:space="preserve">
<style type="text/css">
	.st0{fill:#FFFFFF;}
</style>
<g>
	<g>
		<path class="st0" d="M-339,440.5h-1.3l-0.7-1.6h-3.2l-0.7,1.6h-1.2l3-6.9h1.1L-339,440.5z M-342.6,435.1l-1.2,2.7h2.3
			L-342.6,435.1z"/>
		<path class="st0" d="M-330.7,440.5h-2.5v-6.8h2.5c2.1,0,3.6,1.5,3.6,3.4S-328.6,440.5-330.7,440.5z M-330.7,434.8h-1.3v4.6h1.3
			c1.4,0,2.4-1,2.4-2.3C-328.4,435.8-329.3,434.8-330.7,434.8z"/>
		<path class="st0" d="M-316.6,433.7h1.3l-2.8,6.9h-1.1l-2.8-6.9h1.3l2.1,5.2L-316.6,433.7z"/>
		<path class="st0" d="M-304.7,434.8h-3.9v1.8h3.4v1.1h-3.4v1.8h3.9v1.1h-5.1v-6.8h5.1V434.8z"/>
		<path class="st0" d="M-294.1,440.5l-1.7-2.4h-1.5v2.4h-1.2v-6.8h3c1.6,0,2.5,0.8,2.5,2.2c0,1.1-0.7,1.8-1.6,2.1l1.8,2.6
			L-294.1,440.5L-294.1,440.5z M-295.5,434.8h-1.7v2.3h1.8c0.9,0,1.4-0.4,1.4-1.2C-294.1,435.2-294.7,434.8-295.5,434.8z"/>
		<path class="st0" d="M-284.6,440.5h-1.2v-5.7h-2.2v-1.1h5.5v1.1h-2.2v5.7H-284.6z"/>
		<path class="st0" d="M-275.5,433.7v6.8h-1.2v-6.8H-275.5z"/>
		<path class="st0" d="M-266.6,436.6c1.4,0.3,2.2,0.9,2.2,2c0,1.3-1,2-2.4,2c-1,0-2-0.4-2.8-1.1l0.7-0.9c0.7,0.6,1.3,0.9,2.2,0.9
			c0.7,0,1.2-0.3,1.2-0.9c0-0.5-0.3-0.8-1.5-1.1c-1.5-0.4-2.3-0.8-2.3-2s1-2,2.3-2c1,0,1.8,0.3,2.5,0.9l-0.6,0.9
			c-0.6-0.5-1.2-0.7-1.8-0.7c-0.7,0-1.1,0.4-1.1,0.8C-268.2,436-267.9,436.3-266.6,436.6z"/>
		<path class="st0" d="M-257.4,433.7v6.8h-1.2v-6.8H-257.4z"/>
		<path class="st0" d="M-246,433.7h1.2v6.8h-1l-3.8-4.8v4.8h-1.2v-6.8h1.1l3.7,4.7V433.7z"/>
		<path class="st0" d="M-235.8,440.6c-2.1,0-3.5-1.5-3.5-3.5c0-1.9,1.5-3.5,3.5-3.5c1.2,0,1.9,0.3,2.6,0.9l-0.8,0.9
			c-0.5-0.4-1-0.7-1.9-0.7c-1.3,0-2.2,1.1-2.2,2.4c0,1.4,0.9,2.4,2.3,2.4c0.6,0,1.2-0.2,1.6-0.5v-1.3h-1.7v-1h2.9v2.9
			C-233.7,440.2-234.6,440.6-235.8,440.6z"/>
	</g>
	<g>
		<path class="st0" d="M-325.9,397.5c-0.3-0.3-0.3-0.6-0.2-1.1C-325.6,396.8-325.6,397.1-325.9,397.5z"/>
		<path class="st0" d="M-323.8,409.4c-0.2-0.2-0.2-0.2-0.2-0.3c0.1-0.4-0.3-0.8,0-1.2h0.2C-323.7,408.4-323.7,408.9-323.8,409.4z"/>
		<path class="st0" d="M-321.8,410.5c-0.1-0.4-0.2-0.7-0.3-1.1c0-0.4-0.5-0.8-0.2-1.5c0.2,0.4,0.4,0.7,0.5,1s0.2,0.7,0.3,1
			c0.2,0.6,0.7,1.2,0.7,2C-321.4,411.7-321.5,411-321.8,410.5z"/>
		<path class="st0" d="M-307.3,371c0.2,0,0.4-0.1,0.6-0.3c0.3-0.2,0.4,0,0.5,0.2c0,0.2-0.2,0.3-0.3,0.3c-0.2,0.1-0.4,0.2-0.6,0.2
			c-0.2,0.1-0.5,0.4-0.6,0C-307.9,371.1-307.6,371-307.3,371z"/>
		<g>
			<path class="st0" d="M-377.4,433.5c-0.1,0-0.2,0-0.4-0.1c0.4,0.7,0.6,1.4-0.5,1.1c-0.1,0-0.2,0.1-0.2,0.2c0,0.2,0.1,0.3,0.3,0.3
				c0.6,0.1,1.3,0.1,1.6-0.4C-376.4,434.2-377,433.8-377.4,433.5z"/>
			<path class="st0" d="M-361.6,428c-0.6,0.1-1.1,0.4-1.7,0.4c-0.1-0.3-0.1-0.3-0.5-0.3c-1.3,0.1-2.5,0.6-3.8-0.2
				c-0.1,0-0.2,0-0.3,0l0,0h-0.1l0,0c0.3-0.4,0.9-0.7,1.2-0.4c0.2,0.2,0.3,0.4,0.5,0.2c0.1-0.2,0.2-0.5,0.1-0.7
				c0-0.1-0.4-0.3-0.6-0.2c-0.5,0.3-0.9-0.2-1.4-0.2c0.4-0.4,0.9-0.4,1.4-0.5c0,0,0,0,0-0.1c0,0,0.1,0,0.1,0.1c0.5,0,1.1,0,1.6-0.1
				c0.2,0,0.5,0,0.5-0.3s-0.3-0.2-0.5-0.2c-0.7,0-1.3,0.4-2,0.1c0.2-0.1,0.7-0.2,0.4-0.6c-0.3-0.4-0.4,0-0.6,0.1v0.1
				c0,0,0-0.1-0.1-0.1c-1.1-0.2-2.1-0.1-3.2,0.1c-1.4,0.4-2.7-0.3-4.2,0c-1,0.2-2.2,0-3.3,0.2c-1.7,0.3-3.4,0.1-5.2,0.2
				c-2.4,0.2-4.7,0.4-7.1,0.6c-2.7,0.2-5.4,0.4-8.1,0.6c-0.5,0-0.6-0.1-0.6-0.6c0.2-1,0.3-1.9,0.4-2.9c0.3-4.3,1-8.5,1.7-12.7
				c0.3-1.5,0.9-3,0.6-4.6c-0.2-0.9,0-1.8,0.2-2.6c0.1-0.3,0.1-0.6,0.2-0.9c0.8-4.1,1.5-8.2,2.3-12.3l0.1-0.1v0.1
				c0.1,0.1,0.1,0.2,0.2,0.4c0,0.2,0.1,0.4,0.3,0.3c0.3-0.1,0.4-0.3,0.3-0.6c-0.2-0.4,0-0.7,0.2-1c0.5-0.6,0.5-1.1-0.2-1.6
				c-0.3-0.2-0.4-0.4-0.4-0.8c-0.1,0.1-0.1,0.3-0.2,0.4c0-0.1,0-0.3,0.1-0.4s0.1-0.2,0.2-0.3c1,0.8,0.6-0.2,0.7-0.6
				c0.1-0.2,0-0.6,0.1-0.8c0.3-0.5,0.1-1.3,0.7-1.6c0.5-0.3,0.6-0.6,0.7-1.1c0.7-3.4,1.3-6.9,1.8-10.3c0-0.3,0.1-0.7,0.2-1
				c0.6-1.4,0.6-2.9,1-4.4c0.1-0.4,0.1-0.9,0.1-1.4c-0.1-1.3-0.8-2-2.1-1.8c-0.2,0-0.3,0-0.5-0.1c-1.3-0.8-2.7-0.6-4.1-0.9
				c-1.1-0.2-2.2-0.1-3.3-0.4c-0.7-0.2-1.4,0.1-2,0.3c-0.4,0.1,0.1,0.7-0.1,1v0.1c-0.6,1.3-0.8,2.8-1,4.2c-0.3,2.1-0.4,4.3-0.7,6.4
				c-0.7,5.9-1.5,11.7-2.4,17.4c-0.3,1.8-0.2,3.8-1.2,5.4c-0.2,0.2-0.3,0.5-0.3,0.8c-0.6,4.2-1.3,8.5-1.9,12.7
				c-0.9,5.8-1.8,11.6-2.6,17.3c-0.1,0.8-0.6,1.2-1.4,1.3c-0.5,0.1-0.9,0.1-1.2,0.5c-0.8,1.1-0.2,3.1,1.1,3.6
				c-0.1,0.3-0.8,0-0.6,0.5c0.2,0.8-0.4,1.6,0.3,2.3c0.1,0.1-0.1,0.4,0,0.5c0.2,0.3-0.3,0.8,0.1,1c0.7,0.4,1.4,1,2.3,0.8
				c2.3-0.6,4.7-0.2,7-0.3c1,0,1.9,0.2,2.3-1c0,0,0,0,0-0.1c0,0,0,0,0.1,0.1h0.1c1.6,0.1,3.2-0.1,4.8-0.4c0.1,0,0.2,0,0.2,0
				c0.6,0,1.2,0,1.8,0c0.6-0.3,1.4,0,1.9-0.5c0.5,0,1,0,1.5,0c0.4,0.1,0.8,0.1,1.1-0.3h0.1c0.2,0.3,0.4,0.3,0.7,0.3
				c0.9-0.1,1.9-0.5,2.8-0.2c0.3,0.1,0.3-0.2,0.2-0.4l0,0l0,0c0.4,0.2,0.7,0.1,1-0.1c0,0.2,0,0.4,0.3,0.3c0.6-0.1,1.2-0.4,1.7-0.8
				c0.2,0,0.5,0,0.7-0.2c0.1,0,0.2,0,0.3,0c0.4,0.5,0.6-0.2,0.9-0.2c0.2-0.1,0.5-0.2,0.5-0.4c0-0.3-0.4-0.2-0.6-0.2s-0.4,0-0.6,0
				c0-0.1,0-0.1,0-0.2h-0.1c0.2-0.2,0.5-0.1,0.8-0.1c0.7-0.1,0.1-0.6,0.3-0.8c-0.3,0-0.5-0.2-0.4-0.5s0.4-0.3,0.7-0.3
				c1.2-0.1,2.3-0.2,3.5-0.3c0.1,0,0.1-0.1,0.2-0.1l0,0h-0.1c0.5,0.1,1,0,1.5-0.1c0.7-0.1,1.3-0.2,2-0.2c0.5-0.1,1.1,0.2,1.6-0.2
				c0.6-0.2,1.2,0.1,1.8-0.2c0.3,0.1,0.6,0.2,0.8-0.1c0.1-0.1,0.1-0.2,0.1-0.4c-0.1-0.3-0.4-0.2-0.6-0.2c-0.4,0-0.3,0.4-0.5,0.6
				c-0.4-0.4-0.8-0.5-1.3-0.2c-0.2,0.1-0.4,0.2-0.6,0.1l0.1,0.1c0,0-0.1,0-0.1-0.1c-0.3-0.4-0.3-0.4-0.8-0.1c-0.1,0-0.2,0-0.3,0
				c-0.3,0-0.5-0.1-0.7,0.2c-0.2,0-0.4,0.1-0.5-0.1c0-0.1,0-0.1,0-0.2c0.2-0.1,0.3-0.3,0.3-0.5c0,0,0,0-0.1,0c0.6-0.3,1.3-0.5,2-0.5
				c1,0,1.9,0.1,2.8-0.3c0,0,0,0,0.1-0.1c0,0,0,0,0,0.1c0.8-0.1,1.6,0.1,2.3-0.4c0.4-0.3,1-0.4,1.5,0.1c1.1,0.3,2.1-0.5,3.2-0.2
				C-360.9,428.2-361,427.9-361.6,428z"/>
			<path class="st0" d="M-364.8,427c0,0.4,0.4,0.3,0.6,0.2c0.5-0.1,1-0.2,1.4,0.3c0.1,0.2,0.4,0.1,0.4-0.2c-0.1-0.3-0.3-0.6-0.7-0.6
				s-0.8,0-1.2,0C-364.4,426.7-364.8,426.7-364.8,427z"/>
			<path class="st0" d="M-393.8,395.8c0.4-0.5,0.6-1,0.5-1.6c0-0.1-0.1-0.3-0.3-0.3c-0.1,0-0.2,0.1-0.2,0.1
				C-393.5,394.7-394,395.2-393.8,395.8z"/>
			<path class="st0" d="M-364.1,425.8c0.8-0.1,1.6,0,2.3-0.3C-362.6,425.2-363.4,425.4-364.1,425.8z"/>
			<path class="st0" d="M-374.9,434.2c-0.2,0-0.4,0.1-0.4,0.3c0,0.3,0.2,0.2,0.4,0.2c0.2-0.1,0.5,0.1,0.5-0.3
				C-374.5,434.2-374.7,434.2-374.9,434.2z"/>
		</g>
		<path class="st0" d="M-379.4,399.8c-0.1,0-0.2,0-0.2,0c0,0.9-0.1,1.8-0.1,2.6C-379.2,401.6-379.5,400.7-379.4,399.8z"/>
		<path class="st0" d="M-378.4,415c-0.1,0-0.3,0.2-0.4,0.4c-0.1,0.3-0.1,0.6-0.2,1c0.3-0.2,0.4-0.5,0.6-0.5s0.4,0.1,0.4-0.3
			C-378.1,415.3-378.1,415-378.4,415z"/>
		<path class="st0" d="M-374.8,415.7c-0.1,0-0.1,0.4-0.1,0.5c0.2,0.5,0.7,0.2,1,0.1C-374.1,416.1-374.3,415.6-374.8,415.7z"/>
		<path class="st0" d="M-379.6,414.8c-0.1-0.2-0.2-0.4-0.4-0.6c0,0.3-0.1,0.5-0.1,0.7c0,0.3,0.2,0.4,0.4,0.5
			c0.2,0.1,0.4-0.1,0.4-0.2C-379.2,414.8-379.5,414.9-379.6,414.8z"/>
		<path class="st0" d="M-342.8,422.5c0,0.1,0,0.1,0,0.2s0,0.2,0,0.2C-342.9,422.8-342.8,422.6-342.8,422.5z"/>
		<path class="st0" d="M-340.4,372.8C-340.4,372.8-340.4,372.7-340.4,372.8C-340.3,372.7-340.3,372.7-340.4,372.8
			C-340.4,372.7-340.4,372.7-340.4,372.8z"/>
		<path class="st0" d="M-342.8,422.2L-342.8,422.2C-342.8,422.3-342.8,422.3-342.8,422.2C-342.8,422.3-342.8,422.3-342.8,422.2z"/>
		<path class="st0" d="M-342.8,422c0-0.3,0.1-0.5,0.1-0.8C-342.7,421.4-342.8,421.7-342.8,422L-342.8,422L-342.8,422z"/>
		<path class="st0" d="M-342.6,419.9c0-0.1,0-0.2,0-0.4C-342.5,419.7-342.5,419.8-342.6,419.9z"/>
		<path class="st0" d="M-344.5,423.6c-0.1,0.4,0,0.9-0.2,1.3c-0.1-0.3,0-0.6-0.2-0.9c0-0.1,0-0.2,0-0.3c0-0.3,0-0.6,0.3-0.6
			C-344.2,423-344.4,423.3-344.5,423.6z"/>
		<path class="st0" d="M-330.3,365.5c-1.1-1.9-2.3-3.7-4-5.2c-0.6-0.5-1.2-1-2-1.2c-0.3-0.1-0.7-0.3-0.8,0c-0.3,0.6-0.6,0.2-0.8,0
			c-1.5-1-1.5-1-2.7,0.4c-0.2,0.2-0.3,0.4-0.5,0.6h0.1c-0.5,0.8-0.9,1.6-1.4,2.4c-0.4,1.1-1.2,1.9-1.7,3c-0.3,0.5-0.9,0.8-0.9,1.4
			l0,0l0,0c-0.3,1-0.8,1.8-1.3,2.7c-0.2,0.3-0.4,0.4-0.7,0.2h-0.1c-0.2,0.4-0.2,0.8-0.2,1.2c0,0.2-0.1,0.6-0.5,0.3
			c-0.1,0.1-0.2,0.3-0.3,0.4s-0.1,0.4-0.4,0.3s0-0.4,0-0.6c-0.1,0-0.2,0-0.4,0c0-0.1,0-0.1,0-0.2c0,0-0.1,0.1-0.1,0.2
			c-1,0.6-1.2,1.7-1.9,2.6c-0.1,0.1-0.1,0.4-0.1,0.6c0.1,0.5,0.1,0.6-0.3,0.5c-0.2-0.1-0.3,0-0.4,0.2c-0.4,0.7-0.8,1.3-1.1,2
			c-0.1,0.2-0.8,0.7,0.2,0.8c0.1,0,0.1,0.2,0,0.3c-0.2,0.5-0.6,0.4-0.9,0.1c-0.8-0.7-0.7-1.7-1-2.5c-0.5-1.7-0.7-3.6-1.1-5.3
			c-0.8-3.6-1.7-7.1-4.7-9.5c-1.1-0.9-2.2-1.5-3.6-1.9c-0.2,0-0.5-0.2-0.5,0c-0.2,0.6-0.4,0.2-0.7,0.1c-0.5-0.5-0.9-1.1-1.6-1.2
			c-1-0.2-1.5,0.6-2.2,1.1s-0.8,1.2-0.6,1.8c0.2,1,0,1.8-0.4,2.7c-0.8,1.7-1.8,3.2-2.2,5.1c-0.6,3.7-1.2,7.5-2.2,11.1
			c-1.4,5.2-1.9,10.5-3.1,15.7c-0.2,1,0,2-0.3,2.9c-0.4,1-0.5,2.1-0.4,3.1c0,0.5-0.5,0.3-0.4,0.7c0.4,1.7-0.9,3-1,4.6
			c0,0.4-0.1,1.1-0.5,1.5c-0.1-0.1-0.2-0.2-0.2-0.4c0-0.1,0.1-0.2,0.1-0.3c0.3-1.4,0.3-2.8,0.3-4.2c-0.2,0.8-0.2,1.6-0.3,2.4
			c-0.1,0.6-0.1,1.2-0.2,1.8c-0.4,0.1-0.1,0.5-0.2,0.7c-0.3,1.3,0,2.7-0.9,3.8c0,0.1,0,0.2,0,0.3c0,0,0,0,0.1,0
			c-0.5,0.3-0.3,0.8-0.4,1.2c0,0.1,0.1,0.3,0.2,0.3c0.2,0,0.3-0.1,0.4-0.3c0.1-0.4,0.2-0.7,0.3-1.1c0.1,0.2,0.2,0.5,0.6,0.1
			c0.1-0.1,0.5,0,0.5,0.4c0,0.2-0.2,0.6,0.3,0.5c0.4-0.1,0.3-0.4,0.2-0.6c-0.5-0.7,0.6-0.8,0.6-1.3c0.6,0,0.4,0.6,0.6,0.9
			c0.1,0.2,0.2,0.3,0.2,0.5c-0.2,0.7,0,1,0.8,1c0.2,0,0.4,0.1,0.3,0.3c-0.2,0.8,0.7,0,0.7,0.5c0.4,0,0.2-0.4,0.3-0.5
			c0-0.1,0-0.3,0.2-0.3c0.2,0.3,0.5,0.5,0.3,1c-0.1,0.2,0.1,0.3,0.2,0.3c0.3-0.3,0.8,0.1,1-0.3c0.1-0.1,0.2-0.3,0.4-0.2
			c0.2,0.1,0.2,0.2,0.1,0.4c-0.1,0.4,0.3,0.6,0.5,0.7c0.4,0.1,0.2-0.4,0.4-0.5c0.2,0.2,0.4,0.3,0.7,0.5c0.1,0.1,0.4,0,0.3-0.1
			c-0.4-0.9,0.4-0.6,0.8-0.8c-0.7-0.2-0.5-0.8-0.7-1.2c-0.1-0.2,0.1-0.5,0.3-0.4c0.6,0.2,1-0.2,1.7-0.4c-0.8-0.3-0.9-0.7-0.6-1.3
			c0.2,0.1,0,0.6,0.4,0.4c0.3-0.1,0.4-0.3,0.4-0.6c0.1-1.1,0.3-2.3,0.4-3.4c0.5-3.8,1-7.5,1.5-11.2c0.2-1.1-0.1-2.3,0.2-3.3
			c0.6-2.2,0.7-4.4,1.1-6.6c0.6-2.8,1-5.6,1.4-8.5c0-0.2,0.1-0.5,0.4-0.5c0.4,0,0.3,0.3,0.3,0.5c0,0.4,0,0.9,0.1,1.3
			c0.5,2.6,1.5,5,2.6,7.3c0.4,0.8,0.6,1.6,0.6,2.4c0.1,1.2,0.3,2.4,0.7,3.5c0.2,0.5,0.4,1,0.9,1.2c1.3,0.6,2.4,1.5,3.8,1.6
			c1,0.1,2,0.4,2.7-0.6c0.1,0,0.2-0.1,0.2-0.2c0.1-0.4,0.1-0.9,0.5-1.1c0.3-0.2-0.3-0.5,0.1-1c0.5-0.4,1-0.8,1.4-1.3
			c0.1-0.2,0.2-0.4,0.3-0.5l0,0c-0.4-0.1-0.5,0.2-0.7,0.4c-0.1,0.2-0.2,0.4-0.5,0.2c-0.2-0.2-0.1-0.4,0-0.5c0.2-0.3,0.4-0.5,0.6-0.8
			c0.6-0.9,1.1-1.8,1.8-2.6c-0.3-0.1-0.4-0.2-0.2-0.5c1.1-1.8,2.4-3.5,3.1-5.5c0.1-0.3,0.5-0.4,0.7-0.6c0.4-0.8,0.9-1.5,1.2-2.3
			c0.1-0.7,0.4-1.2,1-1.6c0.3-0.5,0.6-1,0.9-1.5c0.1-0.2,0.2-0.4,0.3-0.5c0.1-1,0.9-1.7,1.3-2.7l0,0l0,0c-0.2,0-0.3,0-0.3-0.3
			c0.2-0.8,0.5-1.6,1-2.3c0.3,0.2,0.3,0.5,0.1,0.8c0.3,0.6-0.2,1-0.2,1.6c0,0.1,0,0.1,0,0.2c0,0.6-0.1,1.1-0.5,1.5
			c-0.5,0.6-0.2,1.4-0.6,2c0.2,0.5-0.2,0.8-0.4,1.3l-0.1,0.1c0.3,1.2,0,2.4-0.2,3.6c-0.6,3.6-1.1,7.1-1.7,10.7
			c-0.3,2.2-0.6,4.4-1,6.6c0,0.2,0,0.4,0,0.6c0.1-0.2,0.1-0.4,0.2-0.6c0.2,0.7,0.4,1.3-0.2,1.9c0-0.1-0.1-0.2-0.1-0.3
			c0,0.1,0,0.2-0.1,0.3c-0.1,0.8-0.2,1.5-0.3,2.3c-0.1,0.8-0.2,1.6-0.2,2.4c0,1.4,0.3,2.9-0.1,4.4c-0.3,1.4-0.5,2.8-0.1,4.3v0.1
			c0.1,0,0.1-0.1,0.2-0.1c-0.2,1.4,0.2,2.8,0,4.2c0,0.4,0,0.7-0.5,0.8c0-0.1,0-0.1,0-0.2c0,0.1-0.1,0.2-0.1,0.2
			c0,0.9,0.3,1.8,0.1,2.8c-0.2,0.9-0.2,1.9-0.2,2.8c0.1,0,0.1,0,0.2,0c0.1-0.1,0.2-0.3,0.3-0.4c0.3,0.2,0.3,0.2,0.2,0.9
			c0,0.7-0.2,1.4,0.3,2.1c0.1-0.8,0.3-1.4,0.6-2.1c0.3,0.2,0.1,0.6,0.5,0.7c0.3-0.2,0-0.6,0.3-0.8c0.1,0,0.1-0.1,0.1-0.1
			c0-0.2-0.1-0.4,0.2-0.5c0-0.4,0.1-0.8,0.1-1.2c0-0.1,0-0.3,0-0.4s0-0.3,0.1-0.4c0-0.1,0-0.2,0-0.3c0-0.3,0-0.5,0.1-0.8
			c0-0.3,0.1-0.6,0.1-0.9c0-0.1,0-0.1,0-0.2c0-0.2,0-0.4,0.1-0.6c0.1-1.1,0.1-2.1,0.5-3.1c0.1,0,0.2,0,0.3,0
			c-0.2,1.3-0.4,2.6-0.6,3.8c-0.1,0.6-0.2,1.3-0.2,1.9c0,0.1,0,0.2,0,0.3v0.1c-0.1,0.6,0.7,1.1,0.2,1.7c0,0.3,0,0.6,0,0.9
			c1-0.5,0.8-1.4,1-2.1c0-0.2,0.1-0.5,0.1-0.7c0-0.3,0.1-0.5,0.1-0.8c0.2-1.6,0.5-3.2,0.7-4.8c0-0.6,0.1-1.2,0.2-1.7
			c0-0.3,0.1-0.6,0.1-0.9c0-0.2-0.1-0.7,0.3-0.6s0.2,0.5,0.1,0.7c-0.4,2.5-0.7,5.1-1.1,7.6c-0.1,0.6-0.2,1.1-0.2,1.7l0.1,0.1
			c0.4-0.6,0.6-1.2,0.7-2c0.1-1.7,0.7-3.3,0.9-5.1c0-0.1,0.1-0.1,0.1-0.1c0-0.3,0-0.5,0.2-0.8c0.3,0.1,0.3,0.3,0.5,0.5
			c-0.1-0.6-0.3-1.3,0.1-1.9c0.2-0.4,0.3-0.8,0.2-1.1c-0.1-0.6,0.1-0.9,0.5-1.2v-0.1c-0.5-0.6,0.1-1.3,0.2-1.9
			c0-0.2,0.9-0.3,1.3-0.6c0.2,0.4-0.7,0.6-0.2,0.9c0.4,0.2,0.7-0.1,0.9-0.6c0-0.1,0.1-0.2,0.1-0.2c0.1-0.2,0.2-0.4,0.3-0.7
			c0.8-2.9,0.8-5.8,1.2-8.8c0.3-2.4,0.6-4.9,0.9-7.3c0.2-2,0.7-3.9,0.7-5.9c0.1-2,0.3-4,0.6-5.9c0.7-4.1,1.5-8.2,1.4-12.5
			c0-0.3,0.1-0.5,0.1-0.8C-330.3,367-329.9,366.2-330.3,365.5z M-339.4,367.9c-0.7,0.7-0.9,1.7-1.3,2.5c-0.7,1.4-1.5,2.7-2.4,4
			c-0.7,1-1,2.3-2,3.2c-0.5,0.5-0.5,1.5-0.9,2.1c-0.2,0.3-0.3,0.7-0.7,0.7c0-1,0.6-1.8,1-2.7c0.3-0.8,0.9-1.6,1.2-2.4
			c0.1-0.3,0.5-0.2,0.6-0.5c0.6-1.4,1.4-2.8,2.2-4.2c0.5-0.8,0.8-1.7,1.4-2.3c0.5-0.4,0.3-0.8,0.6-1.2
			C-339.4,367.4-339,367.6-339.4,367.9z"/>
		<path class="st0" d="M-278.9,391.6c0.2-0.8-0.2-1.5-0.2-2.2c-0.1-2-0.7-3.9-1-5.9c-0.1-0.5,0.1-1.1-0.3-1.6
			c-1.1-1.8-1.8-3.7-2.7-5.5c0-0.1-0.1-0.1-0.1-0.2c-0.6-0.3-1.2-0.7-1.6-1.4c-0.5-0.5-0.8-1.1-1.2-1.6c-0.2-0.2-0.4-0.4-0.7-0.5
			c-0.3-0.1-0.5-0.4-0.7-0.6c-2-1.8-4.2-3.1-6.8-3.7c-3.6-0.9-7.1-0.1-10.6,0.7c-1.8,0.4-3.6,1-5.3,1.8c-0.4,0.2-0.7,0.6-1.1,0.6
			c-1.4-0.1-2,0.9-3,1.6c-0.1,0.1-0.2,0.2-0.2,0.2c0.1-0.1,0.3-0.2,0.4-0.2c-0.1,0.2-0.1,0.3,0.2,0.4c0.7-0.5,1.6-0.6,2.4-0.6
			c0.5,0,1-0.2,1.3-0.4c0.6-0.5,1.3-0.1,1.9-0.3c0.2,0,0.5,0,0.5,0.3c0,0.2-0.2,0.4-0.4,0.4c-1.3,0-2.3,1-3.4,1.5c0,0,0,0.1-0.1,0.1
			c-1.5-0.8-1.5,1.1-2.4,1.3c-0.3,0.1-0.5,0.3-0.8,0.5c0.1,0.6,0.3,1.1-0.6,1.5c-0.7,0.3-1.1,1.3-1.6,2c-0.6,1.1-1.2,2.2-2,3.2
			c-0.9,1.1-1.5,2.2-2.2,3.4c-0.7,1.3-1.1,2.7-1.5,4.1c-0.1,0.2-0.1,0.4-0.3,0.6c0,0.5-0.1,1-0.5,1.4c-0.3,0.3-0.7,0.7-0.3,1.3
			c0.2,0.3-0.3,0.5-0.3,0.7c0,0.5,0,1-0.1,1.5c0.2,0.4,0.1,0.7-0.2,1h-0.2c-0.2-0.4-0.4-0.7-0.2-1.1c0.1-0.3,0.2-0.5,0.2-0.7
			c0-0.1,0-0.1,0-0.2c0,0.1,0,0.1,0,0.2s0,0.3,0,0.4l0,0l0,0l0,0c0-0.1,0-0.3,0-0.4s0-0.1,0-0.2c-0.4-2,0.6-3.7,0.9-5.5
			c0.3-0.9,0.2-1.8,0.7-2.6c0.2-1.9,1.8-3.2,2.3-5c0.1-0.3,0.5-0.6,0.8-0.9c0-0.3,0.6-0.8-0.3-0.8c-0.3,0,0-0.3,0-0.4
			c-0.1-0.1-0.2-0.1-0.4-0.2l0.1-0.1c-0.1,0-0.2,0-0.3,0.1c-1.2,1.6-2.3,3.3-3.1,5.1c-0.2,0.3-0.2,0.6-0.2,0.9c0,0,0-0.1,0.1-0.1
			c0.1-0.3,0.1-0.6,0.4-0.7c0,0.3-0.3,0.7,0.3,0.9c0.2,0.1,0,0.3-0.1,0.5c-0.3,0.9-0.6,1.8-0.9,2.7c-0.1,0.3-0.1,0.6-0.5,0.6
			c-0.1,0-0.3,0-0.4,0v-0.1c-0.1,0-0.2,0.1-0.3,0.1c-0.2,0.3-0.3,0.7-0.4,1.1c-0.2,1.2-0.5,2.5-0.7,3.7c-0.2,1.5-0.6,2.9-0.5,4.4
			c0.1,2.3,0.4,4.6,0.9,6.9c0.5,2,0.9,3.9,1.8,5.8c0.4,0.9,0.9,1.7,1.3,2.6c0.4,1,0.9,2.1,1.7,2.9c1.1,1.2,1.8,2.7,3.3,3.5
			c0.1,0.1,0.1,0.2,0.1,0.3c-0.3,0.8,0.3,0.9,0.8,1.2c0.6,0.4,1.3,0.6,2,1c0.7,0.3,1.3,0.8,1.9,1.1c0.4,0.2,0.9,0.4,1.1-0.3
			c0.1-0.4,0.4-0.3,0.6-0.2c0.8,0.2,1.6,0.4,2.4,0.4c0.9,0.1,1.9,0.2,2.7,0.1c0.8-0.1,1.5-0.1,2.2,0.2c0.4,0.1,0.7,0.2,1.1,0
			c0.6-0.3,1.3-0.1,1.9-0.2c0.9-0.1,1.8-0.2,2.7-0.5c0.5-0.2,1.1-0.5,1.6-0.6c1.4-0.3,2.6-1,3.8-1.5c0.9-0.3,1.8-0.8,2.4-1.5
			c1.2-1.2,2.6-2.2,3.7-3.4c0.3-0.3,0.5-0.6,0.6-0.9c0.1-0.4,0.3-0.7,0.6-0.9c0.7-0.6,1-1.4,1.3-2.2c1.2-2,2-5,2-5.3
			c0,0,0-0.1-0.4-0.1c-0.8,1.9-1.6,3.2-2.1,4c-0.1-0.1-0.1-0.3-0.1-0.5c-0.1-1.1,0.6-1.8,1.1-2.6c0.2-0.3,0.3-0.6,0.4-0.9l0,0
			c2.2-3.4,3-9.7,3.1-10.2c0,0,0,0-0.2-0.5c-1.1,4.8-2.2,7.4-2.8,8.7c0-0.1,0-0.1-0.1-0.2c-0.1,0-0.1,0-0.2,0
			c1.2-2.7,1.1-4.2,1.1-4.2s0.1-0.2-0.4-0.2c-0.7,2.3-1.5,3.9-1.9,4.5c-0.1,0.1-0.2,0.2-0.4,0.2c0.1-0.9,0.7-1.6,0.8-2.4
			c0.2-1.5,0.3-3,1.6-4c0.1-0.1,0.2-0.3,0.2-0.4c-0.3-1.6,0.4-3,0.7-4.4h-0.1c-0.2-0.1,0-0.2,0-0.3c0,0,0-0.1,0.1-0.1
			c0.2-0.2,0.6-0.1,0.8-0.3c0-0.1,0.1,0,0.1-0.1s-0.1-0.1-0.1-0.1c-0.3-0.4-0.3-0.8,0-1.2c0.4,0.1,0.2,0.6,0.4,0.8
			c0.1,0.4,0,0.7-0.2,1.1c-0.1,0-0.2,0-0.2,0l0,0c0.1,0.6,0.3,1.1,1,1.1c-0.1,0.6-0.1,0.5,0,0.8c0.1,0.1,0.1,0.1,0.2-0.3
			c0,0.4-0.1,0.4,0.3,0.8c0.1,0.1,0.4,0.3,0.5,0.2c0,0,0,0,0.1,0l0,0C-279,394.5-278.7,393.1-278.9,391.6z M-289,401.7
			c-0.3,0.5,0,1-0.2,1.4c-0.5,1.3-1,2.7-1.7,4c-0.4,0.8-1,1.4-1.8,1.8s-1.7,1-2.3,1.7c-0.4,0.4-0.9,0.7-1.4,0.7
			c-0.7,0.1-1.3,0.3-1.8,0.5c-1,0.5-2,0.4-3,0.6c-1.1,0.3-2.2,0.5-3.3,0.7c-0.4,0.1-0.4,0.7-0.8,0.8l0,0c0.1,0,0.2,0,0.3,0
			c-1.2,0.7-2.4,0.4-3.5,0c-0.6-0.2-1.1-0.7-1.6-1.1c-0.3-0.1-0.5-0.2-0.7-0.4c-0.2-0.2-0.4-0.5-0.5-0.3c-0.9,0.7-1.5-0.1-2.1-0.5
			c-0.5-0.4-1-0.9-1.4-1.4s-0.7-1-0.6-1.7c0.1-0.6-0.3-1.2-0.6-1.7c-2-2.9-1.9-6.2-2.2-9.5c-0.2-2.7,0.7-5,1.6-7.4
			c0.2-0.5,0.4-1,0.5-1.6c0.2-1,1-1.7,1.5-2.5c0.2-0.5,0.4-1.1,1-1.3c0.2-0.3,0.5-0.6,0.7-0.8c0.2-0.4,0.4-0.7,0.8-0.8
			c0,0,0.1,0,0.1-0.1c1.5-1.6,3.5-2.5,5.3-3.6c0.8-0.5,1.9-0.8,3-0.5c0.8,0.3,1.8,0.1,2.8,0.1c3.2,0,5.8,1.2,8.2,3.3
			c1,0.9,1.8,2,2.5,3.1c0.7,1.2,0.9,2.6,1.2,4c0.4,2.2,0.8,4.3,1,6.5C-287.9,397.6-287.9,399.8-289,401.7z"/>
	</g>
</g>
</svg>
