<?xml version="1.0" encoding="utf-8"?>
<!-- Generator: Adobe Illustrator 19.1.0, SVG Export Plug-In . SVG Version: 6.00 Build 0)  -->
<!DOCTYPE svg PUBLIC "-//W3C//DTD SVG 1.1//EN" "http://www.w3.org/Graphics/SVG/1.1/DTD/svg11.dtd">
<svg version="1.1" id="Layer_1" xmlns="http://www.w3.org/2000/svg" xmlns:xlink="http://www.w3.org/1999/xlink" x="0px" y="0px"
	 viewBox="-416 355.6 136 88" style="enable-background:new -416 355.6 136 88;" xml:space="preserve">
<style type="text/css">
	.st0{fill:#FFFFFF;}
</style>
<g>
	<g>
		<path class="st0" d="M-328.9,397.5c-0.3-0.3-0.3-0.6-0.2-1.1C-328.6,396.8-328.6,397.1-328.9,397.5z"/>
		<path class="st0" d="M-326.8,409.4c-0.2-0.2-0.2-0.2-0.2-0.3c0.1-0.4-0.3-0.8,0-1.2h0.2C-326.7,408.4-326.7,408.9-326.8,409.4z"/>
		<path class="st0" d="M-324.8,410.5c-0.1-0.4-0.2-0.7-0.3-1.1c0-0.4-0.5-0.8-0.2-1.5c0.2,0.4,0.4,0.7,0.5,1s0.2,0.7,0.3,1
			c0.2,0.6,0.7,1.2,0.7,2C-324.4,411.7-324.5,411-324.8,410.5z"/>
		<path class="st0" d="M-310.3,371c0.2,0,0.4-0.1,0.6-0.3c0.3-0.2,0.4,0,0.5,0.2c0,0.2-0.2,0.3-0.3,0.3c-0.2,0.1-0.4,0.2-0.6,0.2
			c-0.2,0.1-0.5,0.4-0.6,0C-310.9,371.1-310.6,371-310.3,371z"/>
		<g>
			<path class="st0" d="M-380.4,433.5c-0.1,0-0.2,0-0.4-0.1c0.4,0.7,0.6,1.4-0.5,1.1c-0.1,0-0.2,0.1-0.2,0.2c0,0.2,0.1,0.3,0.3,0.3
				c0.6,0.1,1.3,0.1,1.6-0.4C-379.4,434.2-380,433.8-380.4,433.5z"/>
			<path class="st0" d="M-364.6,428c-0.6,0.1-1.1,0.4-1.7,0.4c-0.1-0.3-0.1-0.3-0.5-0.3c-1.3,0.1-2.5,0.6-3.8-0.2
				c-0.1,0-0.2,0-0.3,0l0,0h-0.1l0,0c0.3-0.4,0.9-0.7,1.2-0.4c0.2,0.2,0.3,0.4,0.5,0.2c0.1-0.2,0.2-0.5,0.1-0.7
				c0-0.1-0.4-0.3-0.6-0.2c-0.5,0.3-0.9-0.2-1.4-0.2c0.4-0.4,0.9-0.4,1.4-0.5c0,0,0,0,0-0.1c0,0,0.1,0,0.1,0.1c0.5,0,1.1,0,1.6-0.1
				c0.2,0,0.5,0,0.5-0.3s-0.3-0.2-0.5-0.2c-0.7,0-1.3,0.4-2,0.1c0.2-0.1,0.7-0.2,0.4-0.6c-0.3-0.4-0.4,0-0.6,0.1v0.1
				c0,0,0-0.1-0.1-0.1c-1.1-0.2-2.1-0.1-3.2,0.1c-1.4,0.4-2.7-0.3-4.2,0c-1,0.2-2.2,0-3.3,0.2c-1.7,0.3-3.4,0.1-5.2,0.2
				c-2.4,0.2-4.7,0.4-7.1,0.6c-2.7,0.2-5.4,0.4-8.1,0.6c-0.5,0-0.6-0.1-0.6-0.6c0.2-1,0.3-1.9,0.4-2.9c0.3-4.3,1-8.5,1.7-12.7
				c0.3-1.5,0.9-3,0.6-4.6c-0.2-0.9,0-1.8,0.2-2.6c0.1-0.3,0.1-0.6,0.2-0.9c0.8-4.1,1.5-8.2,2.3-12.3l0.1-0.1v0.1
				c0.1,0.1,0.1,0.2,0.2,0.4c0,0.2,0.1,0.4,0.3,0.3c0.3-0.1,0.4-0.3,0.3-0.6c-0.2-0.4,0-0.7,0.2-1c0.5-0.6,0.5-1.1-0.2-1.6
				c-0.3-0.2-0.4-0.4-0.4-0.8c-0.1,0.1-0.1,0.3-0.2,0.4c0-0.1,0-0.3,0.1-0.4s0.1-0.2,0.2-0.3c1,0.8,0.6-0.2,0.7-0.6
				c0.1-0.2,0-0.6,0.1-0.8c0.3-0.5,0.1-1.3,0.7-1.6c0.5-0.3,0.6-0.6,0.7-1.1c0.7-3.4,1.3-6.9,1.8-10.3c0-0.3,0.1-0.7,0.2-1
				c0.6-1.4,0.6-2.9,1-4.4c0.1-0.4,0.1-0.9,0.1-1.4c-0.1-1.3-0.8-2-2.1-1.8c-0.2,0-0.3,0-0.5-0.1c-1.3-0.8-2.7-0.6-4.1-0.9
				c-1.1-0.2-2.2-0.1-3.3-0.4c-0.7-0.2-1.4,0.1-2,0.3c-0.4,0.1,0.1,0.7-0.1,1v0.1c-0.6,1.3-0.8,2.8-1,4.2c-0.3,2.1-0.4,4.3-0.7,6.4
				c-0.7,5.9-1.5,11.7-2.4,17.4c-0.3,1.8-0.2,3.8-1.2,5.4c-0.2,0.2-0.3,0.5-0.3,0.8c-0.6,4.2-1.3,8.5-1.9,12.7
				c-0.9,5.8-1.8,11.6-2.6,17.3c-0.1,0.8-0.6,1.2-1.4,1.3c-0.5,0.1-0.9,0.1-1.2,0.5c-0.8,1.1-0.2,3.1,1.1,3.6
				c-0.1,0.3-0.8,0-0.6,0.5c0.2,0.8-0.4,1.6,0.3,2.3c0.1,0.1-0.1,0.4,0,0.5c0.2,0.3-0.3,0.8,0.1,1c0.7,0.4,1.4,1,2.3,0.8
				c2.3-0.6,4.7-0.2,7-0.3c1,0,1.9,0.2,2.3-1c0,0,0,0,0-0.1c0,0,0,0,0.1,0.1h0.1c1.6,0.1,3.2-0.1,4.8-0.4c0.1,0,0.2,0,0.2,0
				c0.6,0,1.2,0,1.8,0c0.6-0.3,1.4,0,1.9-0.5c0.5,0,1,0,1.5,0c0.4,0.1,0.8,0.1,1.1-0.3h0.1c0.2,0.3,0.4,0.3,0.7,0.3
				c0.9-0.1,1.9-0.5,2.8-0.2c0.3,0.1,0.3-0.2,0.2-0.4l0,0l0,0c0.4,0.2,0.7,0.1,1-0.1c0,0.2,0,0.4,0.3,0.3c0.6-0.1,1.2-0.4,1.7-0.8
				c0.2,0,0.5,0,0.7-0.2c0.1,0,0.2,0,0.3,0c0.4,0.5,0.6-0.2,0.9-0.2c0.2-0.1,0.5-0.2,0.5-0.4c0-0.3-0.4-0.2-0.6-0.2s-0.4,0-0.6,0
				c0-0.1,0-0.1,0-0.2h-0.1c0.2-0.2,0.5-0.1,0.8-0.1c0.7-0.1,0.1-0.6,0.3-0.8c-0.3,0-0.5-0.2-0.4-0.5s0.4-0.3,0.7-0.3
				c1.2-0.1,2.3-0.2,3.5-0.3c0.1,0,0.1-0.1,0.2-0.1l0,0h-0.1c0.5,0.1,1,0,1.5-0.1c0.7-0.1,1.3-0.2,2-0.2c0.5-0.1,1.1,0.2,1.6-0.2
				c0.6-0.2,1.2,0.1,1.8-0.2c0.3,0.1,0.6,0.2,0.8-0.1c0.1-0.1,0.1-0.2,0.1-0.4c-0.1-0.3-0.4-0.2-0.6-0.2c-0.4,0-0.3,0.4-0.5,0.6
				c-0.4-0.4-0.8-0.5-1.3-0.2c-0.2,0.1-0.4,0.2-0.6,0.1l0.1,0.1c0,0-0.1,0-0.1-0.1c-0.3-0.4-0.3-0.4-0.8-0.1c-0.1,0-0.2,0-0.3,0
				c-0.3,0-0.5-0.1-0.7,0.2c-0.2,0-0.4,0.1-0.5-0.1c0-0.1,0-0.1,0-0.2c0.2-0.1,0.3-0.3,0.3-0.5c0,0,0,0-0.1,0c0.6-0.3,1.3-0.5,2-0.5
				c1,0,1.9,0.1,2.8-0.3c0,0,0,0,0.1-0.1c0,0,0,0,0,0.1c0.8-0.1,1.6,0.1,2.3-0.4c0.4-0.3,1-0.4,1.5,0.1c1.1,0.3,2.1-0.5,3.2-0.2
				C-363.9,428.2-364,427.9-364.6,428z"/>
			<path class="st0" d="M-367.8,427c0,0.4,0.4,0.3,0.6,0.2c0.5-0.1,1-0.2,1.4,0.3c0.1,0.2,0.4,0.1,0.4-0.2c-0.1-0.3-0.3-0.6-0.7-0.6
				s-0.8,0-1.2,0C-367.4,426.7-367.8,426.7-367.8,427z"/>
			<path class="st0" d="M-396.8,395.8c0.4-0.5,0.6-1,0.5-1.6c0-0.1-0.1-0.3-0.3-0.3c-0.1,0-0.2,0.1-0.2,0.1
				C-396.5,394.7-397,395.2-396.8,395.8z"/>
			<path class="st0" d="M-367.1,425.8c0.8-0.1,1.6,0,2.3-0.3C-365.6,425.2-366.4,425.4-367.1,425.8z"/>
			<path class="st0" d="M-377.9,434.2c-0.2,0-0.4,0.1-0.4,0.3c0,0.3,0.2,0.2,0.4,0.2c0.2-0.1,0.5,0.1,0.5-0.3
				C-377.5,434.2-377.7,434.2-377.9,434.2z"/>
		</g>
		<path class="st0" d="M-382.4,399.8c-0.1,0-0.2,0-0.2,0c0,0.9-0.1,1.8-0.1,2.6C-382.2,401.6-382.5,400.7-382.4,399.8z"/>
		<path class="st0" d="M-381.4,415c-0.1,0-0.3,0.2-0.4,0.4c-0.1,0.3-0.1,0.6-0.2,1c0.3-0.2,0.4-0.5,0.6-0.5s0.4,0.1,0.4-0.3
			C-381.1,415.3-381.1,415-381.4,415z"/>
		<path class="st0" d="M-377.8,415.7c-0.1,0-0.1,0.4-0.1,0.5c0.2,0.5,0.7,0.2,1,0.1C-377.1,416.1-377.3,415.6-377.8,415.7z"/>
		<path class="st0" d="M-382.6,414.8c-0.1-0.2-0.2-0.4-0.4-0.6c0,0.3-0.1,0.5-0.1,0.7c0,0.3,0.2,0.4,0.4,0.5
			c0.2,0.1,0.4-0.1,0.4-0.2C-382.2,414.8-382.5,414.9-382.6,414.8z"/>
		<path class="st0" d="M-345.8,422.5c0,0.1,0,0.1,0,0.2s0,0.2,0,0.2C-345.9,422.8-345.8,422.6-345.8,422.5z"/>
		<path class="st0" d="M-343.4,372.8C-343.4,372.8-343.4,372.7-343.4,372.8C-343.3,372.7-343.3,372.7-343.4,372.8
			C-343.4,372.7-343.4,372.7-343.4,372.8z"/>
		<path class="st0" d="M-345.8,422.2L-345.8,422.2C-345.8,422.3-345.8,422.3-345.8,422.2C-345.8,422.3-345.8,422.3-345.8,422.2z"/>
		<path class="st0" d="M-345.8,422c0-0.3,0.1-0.5,0.1-0.8C-345.7,421.4-345.8,421.7-345.8,422L-345.8,422L-345.8,422z"/>
		<path class="st0" d="M-345.6,419.9c0-0.1,0-0.2,0-0.4C-345.5,419.7-345.5,419.8-345.6,419.9z"/>
		<path class="st0" d="M-347.5,423.6c-0.1,0.4,0,0.9-0.2,1.3c-0.1-0.3,0-0.6-0.2-0.9c0-0.1,0-0.2,0-0.3c0-0.3,0-0.6,0.3-0.6
			C-347.2,423-347.4,423.3-347.5,423.6z"/>
		<path class="st0" d="M-333.3,365.5c-1.1-1.9-2.3-3.7-4-5.2c-0.6-0.5-1.2-1-2-1.2c-0.3-0.1-0.7-0.3-0.8,0c-0.3,0.6-0.6,0.2-0.8,0
			c-1.5-1-1.5-1-2.7,0.4c-0.2,0.2-0.3,0.4-0.5,0.6h0.1c-0.5,0.8-0.9,1.6-1.4,2.4c-0.4,1.1-1.2,1.9-1.7,3c-0.3,0.5-0.9,0.8-0.9,1.4
			l0,0l0,0c-0.3,1-0.8,1.8-1.3,2.7c-0.2,0.3-0.4,0.4-0.7,0.2h-0.1c-0.2,0.4-0.2,0.8-0.2,1.2c0,0.2-0.1,0.6-0.5,0.3
			c-0.1,0.1-0.2,0.3-0.3,0.4s-0.1,0.4-0.4,0.3s0-0.4,0-0.6c-0.1,0-0.2,0-0.4,0c0-0.1,0-0.1,0-0.2c0,0-0.1,0.1-0.1,0.2
			c-1,0.6-1.2,1.7-1.9,2.6c-0.1,0.1-0.1,0.4-0.1,0.6c0.1,0.5,0.1,0.6-0.3,0.5c-0.2-0.1-0.3,0-0.4,0.2c-0.4,0.7-0.8,1.3-1.1,2
			c-0.1,0.2-0.8,0.7,0.2,0.8c0.1,0,0.1,0.2,0,0.3c-0.2,0.5-0.6,0.4-0.9,0.1c-0.8-0.7-0.7-1.7-1-2.5c-0.5-1.7-0.7-3.6-1.1-5.3
			c-0.8-3.6-1.7-7.1-4.7-9.5c-1.1-0.9-2.2-1.5-3.6-1.9c-0.2,0-0.5-0.2-0.5,0c-0.2,0.6-0.4,0.2-0.7,0.1c-0.5-0.5-0.9-1.1-1.6-1.2
			c-1-0.2-1.5,0.6-2.2,1.1s-0.8,1.2-0.6,1.8c0.2,1,0,1.8-0.4,2.7c-0.8,1.7-1.8,3.2-2.2,5.1c-0.6,3.7-1.2,7.5-2.2,11.1
			c-1.4,5.2-1.9,10.5-3.1,15.7c-0.2,1,0,2-0.3,2.9c-0.4,1-0.5,2.1-0.4,3.1c0,0.5-0.5,0.3-0.4,0.7c0.4,1.7-0.9,3-1,4.6
			c0,0.4-0.1,1.1-0.5,1.5c-0.1-0.1-0.2-0.2-0.2-0.4c0-0.1,0.1-0.2,0.1-0.3c0.3-1.4,0.3-2.8,0.3-4.2c-0.2,0.8-0.2,1.6-0.3,2.4
			c-0.1,0.6-0.1,1.2-0.2,1.8c-0.4,0.1-0.1,0.5-0.2,0.7c-0.3,1.3,0,2.7-0.9,3.8c0,0.1,0,0.2,0,0.3c0,0,0,0,0.1,0
			c-0.5,0.3-0.3,0.8-0.4,1.2c0,0.1,0.1,0.3,0.2,0.3c0.2,0,0.3-0.1,0.4-0.3c0.1-0.4,0.2-0.7,0.3-1.1c0.1,0.2,0.2,0.5,0.6,0.1
			c0.1-0.1,0.5,0,0.5,0.4c0,0.2-0.2,0.6,0.3,0.5c0.4-0.1,0.3-0.4,0.2-0.6c-0.5-0.7,0.6-0.8,0.6-1.3c0.6,0,0.4,0.6,0.6,0.9
			c0.1,0.2,0.2,0.3,0.2,0.5c-0.2,0.7,0,1,0.8,1c0.2,0,0.4,0.1,0.3,0.3c-0.2,0.8,0.7,0,0.7,0.5c0.4,0,0.2-0.4,0.3-0.5
			c0-0.1,0-0.3,0.2-0.3c0.2,0.3,0.5,0.5,0.3,1c-0.1,0.2,0.1,0.3,0.2,0.3c0.3-0.3,0.8,0.1,1-0.3c0.1-0.1,0.2-0.3,0.4-0.2
			c0.2,0.1,0.2,0.2,0.1,0.4c-0.1,0.4,0.3,0.6,0.5,0.7c0.4,0.1,0.2-0.4,0.4-0.5c0.2,0.2,0.4,0.3,0.7,0.5c0.1,0.1,0.4,0,0.3-0.1
			c-0.4-0.9,0.4-0.6,0.8-0.8c-0.7-0.2-0.5-0.8-0.7-1.2c-0.1-0.2,0.1-0.5,0.3-0.4c0.6,0.2,1-0.2,1.7-0.4c-0.8-0.3-0.9-0.7-0.6-1.3
			c0.2,0.1,0,0.6,0.4,0.4c0.3-0.1,0.4-0.3,0.4-0.6c0.1-1.1,0.3-2.3,0.4-3.4c0.5-3.8,1-7.5,1.5-11.2c0.2-1.1-0.1-2.3,0.2-3.3
			c0.6-2.2,0.7-4.4,1.1-6.6c0.6-2.8,1-5.6,1.4-8.5c0-0.2,0.1-0.5,0.4-0.5c0.4,0,0.3,0.3,0.3,0.5c0,0.4,0,0.9,0.1,1.3
			c0.5,2.6,1.5,5,2.6,7.3c0.4,0.8,0.6,1.6,0.6,2.4c0.1,1.2,0.3,2.4,0.7,3.5c0.2,0.5,0.4,1,0.9,1.2c1.3,0.6,2.4,1.5,3.8,1.6
			c1,0.1,2,0.4,2.7-0.6c0.1,0,0.2-0.1,0.2-0.2c0.1-0.4,0.1-0.9,0.5-1.1c0.3-0.2-0.3-0.5,0.1-1c0.5-0.4,1-0.8,1.4-1.3
			c0.1-0.2,0.2-0.4,0.3-0.5l0,0c-0.4-0.1-0.5,0.2-0.7,0.4c-0.1,0.2-0.2,0.4-0.5,0.2c-0.2-0.2-0.1-0.4,0-0.5c0.2-0.3,0.4-0.5,0.6-0.8
			c0.6-0.9,1.1-1.8,1.8-2.6c-0.3-0.1-0.4-0.2-0.2-0.5c1.1-1.8,2.4-3.5,3.1-5.5c0.1-0.3,0.5-0.4,0.7-0.6c0.4-0.8,0.9-1.5,1.2-2.3
			c0.1-0.7,0.4-1.2,1-1.6c0.3-0.5,0.6-1,0.9-1.5c0.1-0.2,0.2-0.4,0.3-0.5c0.1-1,0.9-1.7,1.3-2.7l0,0l0,0c-0.2,0-0.3,0-0.3-0.3
			c0.2-0.8,0.5-1.6,1-2.3c0.3,0.2,0.3,0.5,0.1,0.8c0.3,0.6-0.2,1-0.2,1.6c0,0.1,0,0.1,0,0.2c0,0.6-0.1,1.1-0.5,1.5
			c-0.5,0.6-0.2,1.4-0.6,2c0.2,0.5-0.2,0.8-0.4,1.3l-0.1,0.1c0.3,1.2,0,2.4-0.2,3.6c-0.6,3.6-1.1,7.1-1.7,10.7
			c-0.3,2.2-0.6,4.4-1,6.6c0,0.2,0,0.4,0,0.6c0.1-0.2,0.1-0.4,0.2-0.6c0.2,0.7,0.4,1.3-0.2,1.9c0-0.1-0.1-0.2-0.1-0.3
			c0,0.1,0,0.2-0.1,0.3c-0.1,0.8-0.2,1.5-0.3,2.3c-0.1,0.8-0.2,1.6-0.2,2.4c0,1.4,0.3,2.9-0.1,4.4c-0.3,1.4-0.5,2.8-0.1,4.3v0.1
			c0.1,0,0.1-0.1,0.2-0.1c-0.2,1.4,0.2,2.8,0,4.2c0,0.4,0,0.7-0.5,0.8c0-0.1,0-0.1,0-0.2c0,0.1-0.1,0.2-0.1,0.2
			c0,0.9,0.3,1.8,0.1,2.8c-0.2,0.9-0.2,1.9-0.2,2.8c0.1,0,0.1,0,0.2,0c0.1-0.1,0.2-0.3,0.3-0.4c0.3,0.2,0.3,0.2,0.2,0.9
			c0,0.7-0.2,1.4,0.3,2.1c0.1-0.8,0.3-1.4,0.6-2.1c0.3,0.2,0.1,0.6,0.5,0.7c0.3-0.2,0-0.6,0.3-0.8c0.1,0,0.1-0.1,0.1-0.1
			c0-0.2-0.1-0.4,0.2-0.5c0-0.4,0.1-0.8,0.1-1.2c0-0.1,0-0.3,0-0.4s0-0.3,0.1-0.4c0-0.1,0-0.2,0-0.3c0-0.3,0-0.5,0.1-0.8
			c0-0.3,0.1-0.6,0.1-0.9c0-0.1,0-0.1,0-0.2c0-0.2,0-0.4,0.1-0.6c0.1-1.1,0.1-2.1,0.5-3.1c0.1,0,0.2,0,0.3,0
			c-0.2,1.3-0.4,2.6-0.6,3.8c-0.1,0.6-0.2,1.3-0.2,1.9c0,0.1,0,0.2,0,0.3v0.1c-0.1,0.6,0.7,1.1,0.2,1.7c0,0.3,0,0.6,0,0.9
			c1-0.5,0.8-1.4,1-2.1c0-0.2,0.1-0.5,0.1-0.7c0-0.3,0.1-0.5,0.1-0.8c0.2-1.6,0.5-3.2,0.7-4.8c0-0.6,0.1-1.2,0.2-1.7
			c0-0.3,0.1-0.6,0.1-0.9c0-0.2-0.1-0.7,0.3-0.6s0.2,0.5,0.1,0.7c-0.4,2.5-0.7,5.1-1.1,7.6c-0.1,0.6-0.2,1.1-0.2,1.7l0.1,0.1
			c0.4-0.6,0.6-1.2,0.7-2c0.1-1.7,0.7-3.3,0.9-5.1c0-0.1,0.1-0.1,0.1-0.1c0-0.3,0-0.5,0.2-0.8c0.3,0.1,0.3,0.3,0.5,0.5
			c-0.1-0.6-0.3-1.3,0.1-1.9c0.2-0.4,0.3-0.8,0.2-1.1c-0.1-0.6,0.1-0.9,0.5-1.2v-0.1c-0.5-0.6,0.1-1.3,0.2-1.9
			c0-0.2,0.9-0.3,1.3-0.6c0.2,0.4-0.7,0.6-0.2,0.9c0.4,0.2,0.7-0.1,0.9-0.6c0-0.1,0.1-0.2,0.1-0.2c0.1-0.2,0.2-0.4,0.3-0.7
			c0.8-2.9,0.8-5.8,1.2-8.8c0.3-2.4,0.6-4.9,0.9-7.3c0.2-2,0.7-3.9,0.7-5.9c0.1-2,0.3-4,0.6-5.9c0.7-4.1,1.5-8.2,1.4-12.5
			c0-0.3,0.1-0.5,0.1-0.8C-333.3,367-332.9,366.2-333.3,365.5z M-342.4,367.9c-0.7,0.7-0.9,1.7-1.3,2.5c-0.7,1.4-1.5,2.7-2.4,4
			c-0.7,1-1,2.3-2,3.2c-0.5,0.5-0.5,1.5-0.9,2.1c-0.2,0.3-0.3,0.7-0.7,0.7c0-1,0.6-1.8,1-2.7c0.3-0.8,0.9-1.6,1.2-2.4
			c0.1-0.3,0.5-0.2,0.6-0.5c0.6-1.4,1.4-2.8,2.2-4.2c0.5-0.8,0.8-1.7,1.4-2.3c0.5-0.4,0.3-0.8,0.6-1.2
			C-342.4,367.4-342,367.6-342.4,367.9z"/>
		<path class="st0" d="M-281.9,391.6c0.2-0.8-0.2-1.5-0.2-2.2c-0.1-2-0.7-3.9-1-5.9c-0.1-0.5,0.1-1.1-0.3-1.6
			c-1.1-1.8-1.8-3.7-2.7-5.5c0-0.1-0.1-0.1-0.1-0.2c-0.6-0.3-1.2-0.7-1.6-1.4c-0.5-0.5-0.8-1.1-1.2-1.6c-0.2-0.2-0.4-0.4-0.7-0.5
			c-0.3-0.1-0.5-0.4-0.7-0.6c-2-1.8-4.2-3.1-6.8-3.7c-3.6-0.9-7.1-0.1-10.6,0.7c-1.8,0.4-3.6,1-5.3,1.8c-0.4,0.2-0.7,0.6-1.1,0.6
			c-1.4-0.1-2,0.9-3,1.6c-0.1,0.1-0.2,0.2-0.2,0.2c0.1-0.1,0.3-0.2,0.4-0.2c-0.1,0.2-0.1,0.3,0.2,0.4c0.7-0.5,1.6-0.6,2.4-0.6
			c0.5,0,1-0.2,1.3-0.4c0.6-0.5,1.3-0.1,1.9-0.3c0.2,0,0.5,0,0.5,0.3c0,0.2-0.2,0.4-0.4,0.4c-1.3,0-2.3,1-3.4,1.5c0,0,0,0.1-0.1,0.1
			c-1.5-0.8-1.5,1.1-2.4,1.3c-0.3,0.1-0.5,0.3-0.8,0.5c0.1,0.6,0.3,1.1-0.6,1.5c-0.7,0.3-1.1,1.3-1.6,2c-0.6,1.1-1.2,2.2-2,3.2
			c-0.9,1.1-1.5,2.2-2.2,3.4c-0.7,1.3-1.1,2.7-1.5,4.1c-0.1,0.2-0.1,0.4-0.3,0.6c0,0.5-0.1,1-0.5,1.4c-0.3,0.3-0.7,0.7-0.3,1.3
			c0.2,0.3-0.3,0.5-0.3,0.7c0,0.5,0,1-0.1,1.5c0.2,0.4,0.1,0.7-0.2,1h-0.2c-0.2-0.4-0.4-0.7-0.2-1.1c0.1-0.3,0.2-0.5,0.2-0.7
			c0-0.1,0-0.1,0-0.2c0,0.1,0,0.1,0,0.2s0,0.3,0,0.4l0,0l0,0l0,0c0-0.1,0-0.3,0-0.4s0-0.1,0-0.2c-0.4-2,0.6-3.7,0.9-5.5
			c0.3-0.9,0.2-1.8,0.7-2.6c0.2-1.9,1.8-3.2,2.3-5c0.1-0.3,0.5-0.6,0.8-0.9c0-0.3,0.6-0.8-0.3-0.8c-0.3,0,0-0.3,0-0.4
			c-0.1-0.1-0.2-0.1-0.4-0.2l0.1-0.1c-0.1,0-0.2,0-0.3,0.1c-1.2,1.6-2.3,3.3-3.1,5.1c-0.2,0.3-0.2,0.6-0.2,0.9c0,0,0-0.1,0.1-0.1
			c0.1-0.3,0.1-0.6,0.4-0.7c0,0.3-0.3,0.7,0.3,0.9c0.2,0.1,0,0.3-0.1,0.5c-0.3,0.9-0.6,1.8-0.9,2.7c-0.1,0.3-0.1,0.6-0.5,0.6
			c-0.1,0-0.3,0-0.4,0v-0.1c-0.1,0-0.2,0.1-0.3,0.1c-0.2,0.3-0.3,0.7-0.4,1.1c-0.2,1.2-0.5,2.5-0.7,3.7c-0.2,1.5-0.6,2.9-0.5,4.4
			c0.1,2.3,0.4,4.6,0.9,6.9c0.5,2,0.9,3.9,1.8,5.8c0.4,0.9,0.9,1.7,1.3,2.6c0.4,1,0.9,2.1,1.7,2.9c1.1,1.2,1.8,2.7,3.3,3.5
			c0.1,0.1,0.1,0.2,0.1,0.3c-0.3,0.8,0.3,0.9,0.8,1.2c0.6,0.4,1.3,0.6,2,1c0.7,0.3,1.3,0.8,1.9,1.1c0.4,0.2,0.9,0.4,1.1-0.3
			c0.1-0.4,0.4-0.3,0.6-0.2c0.8,0.2,1.6,0.4,2.4,0.4c0.9,0.1,1.9,0.2,2.7,0.1c0.8-0.1,1.5-0.1,2.2,0.2c0.4,0.1,0.7,0.2,1.1,0
			c0.6-0.3,1.3-0.1,1.9-0.2c0.9-0.1,1.8-0.2,2.7-0.5c0.5-0.2,1.1-0.5,1.6-0.6c1.4-0.3,2.6-1,3.8-1.5c0.9-0.3,1.8-0.8,2.4-1.5
			c1.2-1.2,2.6-2.2,3.7-3.4c0.3-0.3,0.5-0.6,0.6-0.9c0.1-0.4,0.3-0.7,0.6-0.9c0.7-0.6,1-1.4,1.3-2.2c1.2-2,2-5,2-5.3
			c0,0,0-0.1-0.4-0.1c-0.8,1.9-1.6,3.2-2.1,4c-0.1-0.1-0.1-0.3-0.1-0.5c-0.1-1.1,0.6-1.8,1.1-2.6c0.2-0.3,0.3-0.6,0.4-0.9l0,0
			c2.2-3.4,3-9.7,3.1-10.2c0,0,0,0-0.2-0.5c-1.1,4.8-2.2,7.4-2.8,8.7c0-0.1,0-0.1-0.1-0.2c-0.1,0-0.1,0-0.2,0
			c1.2-2.7,1.1-4.2,1.1-4.2s0.1-0.2-0.4-0.2c-0.7,2.3-1.5,3.9-1.9,4.5c-0.1,0.1-0.2,0.2-0.4,0.2c0.1-0.9,0.7-1.6,0.8-2.4
			c0.2-1.5,0.3-3,1.6-4c0.1-0.1,0.2-0.3,0.2-0.4c-0.3-1.6,0.4-3,0.7-4.4h-0.1c-0.2-0.1,0-0.2,0-0.3c0,0,0-0.1,0.1-0.1
			c0.2-0.2,0.6-0.1,0.8-0.3c0-0.1,0.1,0,0.1-0.1s-0.1-0.1-0.1-0.1c-0.3-0.4-0.3-0.8,0-1.2c0.4,0.1,0.2,0.6,0.4,0.8
			c0.1,0.4,0,0.7-0.2,1.1c-0.1,0-0.2,0-0.2,0l0,0c0.1,0.6,0.3,1.1,1,1.1c-0.1,0.6-0.1,0.5,0,0.8c0.1,0.1,0.1,0.1,0.2-0.3
			c0,0.4-0.1,0.4,0.3,0.8c0.1,0.1,0.4,0.3,0.5,0.2c0,0,0,0,0.1,0l0,0C-282,394.5-281.7,393.1-281.9,391.6z M-292,401.7
			c-0.3,0.5,0,1-0.2,1.4c-0.5,1.3-1,2.7-1.7,4c-0.4,0.8-1,1.4-1.8,1.8s-1.7,1-2.3,1.7c-0.4,0.4-0.9,0.7-1.4,0.7
			c-0.7,0.1-1.3,0.3-1.8,0.5c-1,0.5-2,0.4-3,0.6c-1.1,0.3-2.2,0.5-3.3,0.7c-0.4,0.1-0.4,0.7-0.8,0.8l0,0c0.1,0,0.2,0,0.3,0
			c-1.2,0.7-2.4,0.4-3.5,0c-0.6-0.2-1.1-0.7-1.6-1.1c-0.3-0.1-0.5-0.2-0.7-0.4c-0.2-0.2-0.4-0.5-0.5-0.3c-0.9,0.7-1.5-0.1-2.1-0.5
			c-0.5-0.4-1-0.9-1.4-1.4s-0.7-1-0.6-1.7c0.1-0.6-0.3-1.2-0.6-1.7c-2-2.9-1.9-6.2-2.2-9.5c-0.2-2.7,0.7-5,1.6-7.4
			c0.2-0.5,0.4-1,0.5-1.6c0.2-1,1-1.7,1.5-2.5c0.2-0.5,0.4-1.1,1-1.3c0.2-0.3,0.5-0.6,0.7-0.8c0.2-0.4,0.4-0.7,0.8-0.8
			c0,0,0.1,0,0.1-0.1c1.5-1.6,3.5-2.5,5.3-3.6c0.8-0.5,1.9-0.8,3-0.5c0.8,0.3,1.8,0.1,2.8,0.1c3.2,0,5.8,1.2,8.2,3.3
			c1,0.9,1.8,2,2.5,3.1c0.7,1.2,0.9,2.6,1.2,4c0.4,2.2,0.8,4.3,1,6.5C-290.9,397.6-290.9,399.8-292,401.7z"/>
	</g>
</g>
</svg>
