<svg id="Layer_1" xmlns="http://www.w3.org/2000/svg" viewBox="0 0 144 141.2"><style>.st0,.st1{fill-rule:evenodd;clip-rule:evenodd;fill:#4f2d10}.st1{fill:#fff}</style><path class="st0" d="M144 70.6c0 39-32.2 70.6-72 70.6S0 109.6 0 70.6C0 31.6 32.2 0 72 0s72 31.6 72 70.6z"/><path class="st1" d="M88.7 66.1c-.3-.3-.3-.5-.1-.9.3.3.3.5.1.9zM90.4 76c-.1-.2-.2-.2-.2-.2.1-.3-.2-.7 0-1h.2c.1.4.2.8 0 1.2zM92.2 77l-.3-.9c0-.4-.4-.7-.1-1.2.2.3.3.6.4.8l.3.9c.1.5.6 1 .6 1.6-.7-.3-.7-.8-.9-1.2zM104.2 44c.2 0 .4-.1.5-.2.2-.2.3 0 .4.1 0 .2-.1.2-.3.3-.2.1-.4.1-.5.2-.2.1-.4.3-.5 0-.1-.3.2-.4.4-.4zM45.8 96.1c-.1 0-.1 0-.4-.1.3.6.5 1.1-.4.9-.1 0-.2.1-.2.2s.1.2.2.3c.5.1 1.1.1 1.3-.3.3-.4-.2-.7-.5-1z"/><path class="st1" d="M58.9 91.5c-.5.1-.9.3-1.4.3-.1-.3-.1-.3-.5-.2-1 .1-2.1.5-3.1-.1h-.2-.1c.3-.3.8-.6 1-.3.2.2.2.4.4.2.1-.1.1-.4.1-.6 0-.1-.3-.2-.5-.1-.4.2-.7-.2-1.1-.2.3-.3.8-.4 1.2-.5v-.1l.1.1c.5 0 .9 0 1.4-.1.2 0 .4 0 .4-.2s-.2-.2-.4-.2c-.5 0-1.1.3-1.6.1.2-.1.6-.1.3-.5-.2-.3-.3 0-.5.1v.1s0-.1-.1-.1c-.9-.2-1.8-.1-2.6.1-1.1.3-2.3-.2-3.5 0-.9.2-1.8 0-2.8.2-1.4.3-2.9.1-4.3.2-2 .2-3.9.3-5.9.5-2.2.2-4.5.3-6.7.5-.4 0-.5-.1-.5-.5l.3-2.4c.3-3.6.8-7.1 1.4-10.6.2-1.3.7-2.5.5-3.8-.1-.8 0-1.5.1-2.2 0-.3.1-.5.1-.8.6-3.4 1.3-6.8 1.9-10.3 0 0 0-.1.1-.1v.1c0 .1.1.2.1.3 0 .1.1.3.3.2.2-.1.4-.3.3-.5-.1-.3 0-.6.2-.9.4-.5.4-.9-.1-1.3-.2-.2-.3-.4-.3-.6-.1.1-.1.2-.1.4 0-.1 0-.2.1-.4 0-.1.1-.2.1-.2.9.7.5-.2.6-.5.1-.2 0-.5.1-.6.3-.4.1-1.1.6-1.3.4-.2.5-.5.6-.9.6-2.9 1.1-5.7 1.5-8.6 0-.3.1-.6.2-.8.5-1.2.5-2.4.9-3.7.1-.4.1-.8.1-1.2 0-1.1-.7-1.6-1.8-1.5-.2 0-.3 0-.4-.1-1.1-.7-2.3-.5-3.4-.7-1.2-.2-2.1-.2-3-.5-.6-.2-1.1.1-1.7.2-.4.1 0 .6-.1.8v.1c-.5 1.1-.6 2.3-.8 3.5-.2 1.8-.3 3.6-.6 5.4-.7 4.8-1.4 9.6-2.2 14.5-.2 1.5-.2 3.1-1 4.5-.1.2-.2.4-.3.7-.5 3.5-1.1 7.1-1.6 10.6l-2.1 14.4c-.1.7-.5 1-1.2 1.1-.4.1-.8.1-1 .4-.7.9-.1 2.6.9 3-.1.2-.6 0-.5.4.2.6-.3 1.4.3 1.9.1.1-.1.3 0 .4.1.3-.2.7.1.8.6.3 1.1.9 1.9.7 1.9-.5 3.9-.2 5.9-.3.8 0 1.6.2 1.9-.8v-.1l.1.1h.1c1.4.1 2.7-.1 4-.3h1.7c.5-.3 1.2 0 1.6-.4h1.2c.4.1.7.1.9-.3h.1c.1.2.3.3.6.2.8 0 1.6-.4 2.4-.2.2.1.2-.2.2-.3.3.2.6.1.9 0 0 .2 0 .3.2.3.5-.1 1-.3 1.4-.7.2 0 .4 0 .6-.2h.3c.3.4.5-.2.7-.1.2-.1.4-.1.4-.3 0-.3-.3-.1-.5-.1h-.5v-.2h-.1c.2-.2.5-.1.7-.1.6 0 .1-.5.3-.7-.3 0-.4-.1-.3-.4.1-.3.4-.3.6-.3 1-.1 2-.2 2.9-.3.1 0 .1 0 .2-.1h-.1c.4.1.9 0 1.3-.1.6-.1 1.1-.1 1.7-.2.4-.1.9.2 1.3-.1.5-.1 1 .1 1.5-.1.2 0 .5.2.7-.1.1-.1.1-.2.1-.3-.1-.2-.3-.2-.5-.2-.3 0-.2.4-.4.5-.3-.3-.7-.4-1.1-.2-.2.1-.3.1-.5.1 0 0 0 .1.1.1 0 0-.1 0-.1-.1-.3-.3-.3-.3-.6-.1h-.3c-.2 0-.4-.1-.6.1-.2 0-.3.1-.4-.1v-.2c.2-.1.3-.2.3-.4.5-.3 1.1-.5 1.7-.4.8 0 1.6.1 2.4-.3v-.1.1c.6-.1 1.3.1 1.9-.4.3-.2.8-.3 1.2.1.9.2 1.7-.4 2.7-.1-.4-.3-.4-.5-1-.5z"/><path class="st1" d="M56.3 90.7c0 .3.4.2.5.2.4-.1.8-.2 1.2.2.1.1.3.1.4-.1-.1-.3-.2-.5-.6-.5h-1c-.2 0-.5-.1-.5.2zM32.1 64.7c.3-.4.5-.8.4-1.4 0-.1-.1-.2-.2-.2s-.1.1-.1.1c.1.6-.3 1-.1 1.5zM56.8 89.7c.6 0 1.3 0 1.9-.3-.6-.2-1.3 0-1.9.3zM47.8 96.7c-.2 0-.4.1-.4.3 0 .2.2.2.3.2.2-.1.4.1.5-.2 0-.3-.2-.3-.4-.3zM44.1 68h-.2c0 .7-.1 1.5-.1 2.2.4-.7.2-1.4.3-2.2zM44.9 80.7c-.1 0-.3.2-.3.3-.1.2-.1.5-.2.8.2-.2.3-.5.5-.5s.4 0 .3-.2c0-.1 0-.4-.3-.4zM48 81.3c-.1 0-.1.3-.1.4.2.4.6.2.9.1-.3-.2-.4-.6-.8-.5zM43.9 80.5c-.1-.1-.2-.3-.3-.5 0 .3-.1.4-.1.6 0 .3.2.3.3.4.2.1.3 0 .3-.2.2-.3-.1-.2-.2-.3zM74.6 86.9V86.9zM76.6 45.5zM74.6 86.7c0 .1 0 .1 0 0 0 .1 0 0 0 0zM74.6 86.5c0-.2 0-.4.1-.7 0 .3-.1.5-.1.7 0 .1 0 0 0 0zM74.8 84.8v-.3.3zM73.2 87.8c-.1.3 0 .7-.2 1-.1-.3 0-.5-.2-.8v-.3c0-.2 0-.5.2-.5.4.2.3.4.2.6z"/><path class="st1" d="M85.1 39.4c-.9-1.6-1.9-3.1-3.3-4.4-.5-.4-1-.8-1.7-1-.2-.1-.6-.2-.7 0-.3.5-.5.2-.7 0-1.3-.9-1.3-.9-2.2.3-.1.2-.3.3-.4.5h.1c-.4.7-.8 1.3-1.2 2-.3.9-1 1.6-1.4 2.5-.2.4-.7.7-.8 1.2-.2.8-.7 1.5-1.1 2.2-.1.3-.3.3-.6.2H71c-.1.3-.1.6-.2 1 0 .2-.1.5-.4.2-.1.1-.1.2-.2.4-.1.1-.1.4-.3.3-.3-.1 0-.3 0-.5h-.3v-.1l-.1.1c-.8.5-1 1.4-1.6 2.1-.1.1-.1.3 0 .5.1.5.1.5-.3.4-.2 0-.3 0-.3.1-.3.6-.7 1.1-.9 1.7-.1.1-.7.6.1.6.1 0 .1.2 0 .3-.2.5-.5.3-.7.1-.7-.5-.6-1.4-.8-2.1-.4-1.5-.6-3-.9-4.5-.7-3-1.4-5.9-3.9-8-.9-.7-1.9-1.3-3-1.6-.1 0-.4-.1-.5 0-.2.5-.4.2-.6.1-.5-.2-.8-.7-1.4-.8-.9-.1-1.3.5-1.9.9-.6.4-.7 1-.5 1.5.2.8 0 1.5-.3 2.3-.6 1.4-1.5 2.6-1.8 4.3-.5 3.1-1 6.2-1.8 9.3-1.1 4.3-1.6 8.8-2.6 13.1-.2.8 0 1.7-.3 2.4-.3.9-.4 1.7-.4 2.6 0 .4-.4.2-.3.6.3 1.4-.8 2.5-.9 3.9 0 .3-.1.9-.4 1.2-.1-.1-.1-.2-.1-.3 0-.1.1-.2.1-.3.3-1.2.3-2.3.3-3.5-.2.7-.2 1.3-.3 2 0 .5-.1 1-.2 1.5-.3.1 0 .4-.2.6-.3 1.1 0 2.2-.7 3.2v.3c-.4.2-.2.7-.4 1 0 .1.1.2.2.3.2 0 .3-.1.3-.2.1-.3.2-.6.2-.9.1.2.2.4.5.1 0-.1.4 0 .4.3 0 .2-.2.5.2.4.3-.1.3-.3.1-.5-.4-.6.5-.7.5-1.1.5 0 .3.5.5.8.1.1.2.3.1.4-.2.6 0 .9.6.8.2 0 .3.1.3.2-.2.7.6 0 .6.4.3 0 .2-.3.2-.5 0-.1 0-.3.2-.3.1.2.4.5.3.8-.1.2.1.3.1.2.2-.3.7.1.9-.3.1-.1.1-.3.3-.2.1.1.2.2.1.4-.1.3.2.5.4.6.3.1.1-.4.3-.5.2.1.4.3.5.4.1.1.3 0 .3-.1-.4-.7.3-.5.7-.7-.6-.2-.4-.7-.6-1-.1-.2.1-.4.3-.3.5.2.9-.2 1.4-.3-.6-.3-.8-.6-.5-1.1.2.1 0 .5.3.3.2-.1.3-.3.3-.5.1-1 .2-1.9.4-2.9.4-3.1.8-6.3 1.3-9.4.1-.9 0-1.9.2-2.8.5-1.8.5-3.7.9-5.5.5-2.3.8-4.7 1.2-7.1 0-.2.1-.4.3-.4.3 0 .2.2.3.4 0 .4 0 .7.1 1.1.4 2.2 1.2 4.2 2.2 6.1.3.7.5 1.3.5 2 .1 1 .2 2 .6 2.9.2.4.3.8.8 1 1 .5 2 1.2 3.2 1.4.8.1 1.6.3 2.2-.5.1 0 .1-.1.2-.1.1-.3.1-.7.5-.9.3-.2-.2-.4.1-.8.4-.4.8-.7 1.2-1.1.1-.1.2-.3.3-.4-.3-.1-.5.1-.6.4-.1.1-.2.3-.4.2-.2-.1-.1-.3 0-.5.2-.2.3-.4.5-.6.5-.7.9-1.5 1.5-2.2-.3-.1-.4-.2-.2-.5.9-1.5 2-2.9 2.6-4.6.1-.3.4-.3.6-.5.4-.6.8-1.2 1-1.9.1-.5.4-1 .9-1.3.2-.4.5-.8.7-1.2.1-.2.2-.3.3-.5.1-.9.8-1.5 1.1-2.2-.2 0-.3 0-.2-.3.2-.7.4-1.3.8-1.9.3.2.3.4.1.7.3.5-.2.9-.1 1.3v.2c0 .5-.1.9-.4 1.2-.4.5-.2 1.1-.5 1.7.2.4-.2.7-.3 1l-.1.1c.3 1 0 2-.1 3-.5 3-.9 5.9-1.4 8.9-.3 1.8-.5 3.7-.8 5.5v.5c0-.2.1-.4.1-.5.1.6.3 1.1-.2 1.6 0-.1-.1-.2-.1-.2 0 .1 0 .2-.1.2-.1.6-.2 1.3-.3 1.9-.1.7-.1 1.3-.1 2 0 1.2.2 2.4-.1 3.6-.3 1.1-.4 2.4-.1 3.6v.1s.1-.1.2-.1c-.2 1.2.1 2.3 0 3.5 0 .3 0 .6-.4.6v-.2c0 .1-.1.1-.1.2 0 .8.3 1.5.1 2.3-.2.8-.2 1.6-.2 2.4h.1c.1-.1.1-.2.2-.4.3.2.3.2.2.8 0 .6-.2 1.1.2 1.8 0-.7.3-1.2.5-1.8.3.2.1.5.4.6.2-.1 0-.5.2-.6 0 0 .1 0 .1-.1s-.1-.3.1-.4c0-.3.1-.7.1-1v-.3-.3-.3c0-.2 0-.4.1-.6 0-.2 0-.5.1-.7v-.2c0-.2 0-.3.1-.5.1-.9.1-1.8.5-2.6h.2c-.2 1.1-.3 2.1-.5 3.2-.1.5-.1 1.1-.2 1.6v.4c-.1.5.5.9.1 1.4v.7c.8-.4.7-1.2.8-1.8 0-.2.1-.4.1-.6 0-.2.1-.4.1-.7.2-1.3.4-2.7.6-4 0-.5.1-1 .2-1.4 0-.2.1-.5.1-.7 0-.2-.1-.6.2-.5.4.1.1.4.1.6-.3 2.1-.6 4.2-.9 6.4-.1.5-.2.9-.2 1.4l.1.1c.3-.5.5-1 .5-1.6.1-1.4.6-2.8.7-4.2 0-.1.1-.1.1-.1 0-.2 0-.5.2-.6.2.1.3.3.4.4-.1-.5-.2-1.1.1-1.6.2-.3.2-.6.2-.9-.1-.5.1-.7.4-1V78c-.4-.5.1-1.1.1-1.5 0-.2.7-.3 1.1-.5.1.4-.6.5-.2.7.3.2.6-.1.7-.5 0-.1 0-.1.1-.2.1-.2.2-.4.2-.5.7-2.4.7-4.9 1-7.3.2-2 .5-4.1.7-6.1.2-1.6.6-3.3.6-4.9.1-1.7.3-3.3.5-5 .6-3.4 1.3-6.9 1.2-10.4 0-.2.1-.4.1-.6.4-.5.8-1.2.5-1.8zm-7.6 2c-.6.6-.7 1.4-1.1 2.1-.6 1.2-1.2 2.3-2 3.4-.6.9-.9 1.9-1.7 2.7-.4.4-.4 1.2-.8 1.8-.2.2-.2.6-.6.6 0-.9.5-1.5.8-2.3.3-.7.7-1.3 1-2 .1-.3.4-.2.5-.5.5-1.2 1.1-2.4 1.8-3.5.4-.6.6-1.4 1.2-1.9.4-.3.2-.7.5-1 .3.2.7.3.4.6zM127.9 61.2c.1-.6-.2-1.2-.2-1.8-.1-1.7-.6-3.3-.9-4.9-.1-.4 0-.9-.2-1.3-.9-1.5-1.5-3.1-2.3-4.6l-.1-.1c-.5-.3-1-.6-1.3-1.2-.4-.4-.6-.9-1-1.4-.2-.2-.4-.3-.6-.4-.3-.1-.4-.3-.6-.5-1.6-1.5-3.5-2.6-5.7-3.1-3-.7-5.9-.1-8.9.6-1.5.4-3 .8-4.5 1.5-.3.1-.6.5-.9.5-1.1-.1-1.7.8-2.5 1.3-.1.1-.2.1-.2.2.1-.1.2-.2.4-.2-.1.2-.1.3.1.3.6-.4 1.3-.5 2-.5.4 0 .8-.2 1.1-.4.5-.4 1.1-.1 1.6-.2.1 0 .4 0 .4.3 0 .2-.2.3-.4.3-1.1 0-1.9.9-2.8 1.3v.1c-1.2-.7-1.2.9-2 1.1-.2.1-.4.3-.7.4.1.5.3.9-.5 1.3-.6.2-.9 1.1-1.4 1.6-.5.9-1 1.9-1.6 2.6-.8.9-1.3 1.9-1.8 2.8-.6 1.1-.9 2.3-1.2 3.5 0 .2-.1.4-.3.5 0 .4-.1.8-.5 1.2-.3.2-.6.6-.2 1.1.2.2-.3.4-.3.6 0 .4 0 .8-.1 1.2.1.3.1.6-.1.8h-.2c-.1-.3-.3-.6-.1-.9.1-.2.2-.4.2-.6v-.1V64c-.4-1.6.5-3.1.8-4.6.2-.7.1-1.5.6-2.2.2-1.6 1.5-2.7 1.9-4.2.1-.3.4-.5.7-.8 0-.2.5-.6-.2-.6-.3 0 0-.2 0-.4-.1 0-.2-.1-.3-.1 0 0 0-.1.1-.1-.1 0-.2 0-.3.1-1 1.3-1.9 2.7-2.6 4.2-.2.2-.2.5-.2.7v-.1c.1-.2.1-.5.3-.6 0 .3-.3.6.2.7.1 0 0 .3-.1.4-.2.8-.5 1.5-.7 2.2-.1.2-.1.5-.4.5h-.3V59c-.1 0-.1.1-.2.1-.2.3-.2.6-.3.9-.2 1-.4 2.1-.6 3.1-.2 1.2-.5 2.5-.4 3.7.1 1.9.3 3.8.7 5.7.4 1.6.8 3.3 1.5 4.8.3.7.8 1.4 1.1 2.2.4.9.8 1.7 1.4 2.4.9 1 1.5 2.3 2.8 2.9.1 0 .1.2.1.3-.2.6.3.8.7 1 .5.3 1.1.5 1.7.8.6.3 1 .7 1.6.9.3.2.7.4.9-.2.1-.3.3-.2.5-.2.7.1 1.3.3 2 .4.8.1 1.5.2 2.3.1.7-.1 1.2-.1 1.9.2.3.1.6.2.9 0 .5-.2 1.1-.1 1.6-.2.7-.1 1.5-.2 2.2-.4.4-.2.9-.4 1.3-.5 1.1-.3 2.1-.8 3.2-1.2.7-.3 1.5-.7 2-1.2 1-1 2.1-1.8 3.1-2.8.2-.2.4-.5.5-.8.1-.3.3-.6.5-.8.6-.5.8-1.2 1.1-1.9 1-1.6 1.6-4.2 1.7-4.4 0 0 0-.1-.3-.1-.6 1.6-1.3 2.7-1.8 3.4-.1-.1-.1-.3-.1-.4-.1-.9.5-1.5.9-2.2.1-.2.2-.5.3-.7 1.8-2.8 2.5-8.1 2.6-8.5l-.2-.4c-.9 4-1.8 6.2-2.3 7.2 0-.1 0-.1-.1-.2h-.1c1-2.2.9-3.5.9-3.5s.1-.2-.3-.1c-.6 1.9-1.3 3.2-1.6 3.8-.1.1-.2.2-.4.2.1-.8.6-1.3.7-2 .1-1.2.3-2.5 1.4-3.3.1-.1.1-.2.1-.3-.2-1.3.3-2.5.6-3.7h-.1c-.1-.1 0-.2 0-.2s0-.1.1-.1c.2-.2.5-.1.7-.3 0-.1.1 0 .1-.1s-.1 0-.1-.1c-.2-.3-.3-.7 0-1 .3.1.2.5.4.6.1.3 0 .6-.1.9h-.2c.1.5.3.9.9.9-.1.5-.1.4 0 .7.1 0 .1.1.2-.2 0 .4-.1.4.2.6.1.1.3.2.4.2.2-1.4.3-2.6.2-3.8zm-8.5 8.4c-.2.4 0 .8-.2 1.2-.4 1.1-.8 2.3-1.4 3.3-.4.6-.8 1.2-1.5 1.5-.7.4-1.4.8-1.9 1.4-.3.3-.7.5-1.1.6-.6.1-1.1.2-1.5.5-.8.4-1.7.3-2.5.5l-2.7.6c-.3.1-.3.6-.7.7h.2c-1 .6-2 .3-2.9 0-.5-.2-.9-.6-1.3-1-.2-.1-.4-.1-.6-.3-.1-.1-.3-.4-.5-.3-.8.6-1.3-.1-1.8-.4-.4-.3-.8-.7-1.2-1.2-.4-.4-.6-.9-.5-1.4.1-.5-.2-1-.5-1.4-1.7-2.4-1.6-5.2-1.8-7.9-.2-2.3.5-4.2 1.4-6.2.2-.4.3-.8.4-1.3.2-.8.9-1.4 1.2-2.1.2-.4.4-.9.8-1.1.2-.2.4-.5.6-.7.2-.3.3-.6.7-.7l.1-.1c1.2-1.4 2.9-2.1 4.5-3 .7-.4 1.6-.7 2.5-.4.7.2 1.5 0 2.3.1 2.6 0 4.9 1 6.8 2.8.8.8 1.5 1.6 2.1 2.6.5 1 .7 2.2 1 3.3.3 1.8.7 3.6.8 5.4.2 1.6.2 3.4-.8 5z"/></svg>