<svg id="Layer_1" xmlns="http://www.w3.org/2000/svg" viewBox="-416 355.6 136 88"><style>.st0{fill:#fff}</style><path class="st0" d="M-328.9 397.5c-.3-.3-.3-.6-.2-1.1.5.4.5.7.2 1.1zM-326.8 409.4c-.2-.2-.2-.2-.2-.3.1-.4-.3-.8 0-1.2h.2c.1.5.1 1 0 1.5zM-324.8 410.5c-.1-.4-.2-.7-.3-1.1 0-.4-.5-.8-.2-1.5.2.4.4.7.5 1s.2.7.3 1c.2.6.7 1.2.7 2-.6-.2-.7-.9-1-1.4zM-310.3 371c.2 0 .4-.1.6-.3.3-.2.4 0 .5.2 0 .2-.2.3-.3.3-.2.1-.4.2-.6.2-.2.1-.5.4-.6 0-.2-.3.1-.4.4-.4zM-380.4 433.5c-.1 0-.2 0-.4-.1.4.7.6 1.4-.5 1.1-.1 0-.2.1-.2.2 0 .2.1.3.3.3.6.1 1.3.1 1.6-.4.2-.4-.4-.8-.8-1.1z"/><path class="st0" d="M-364.6 428c-.6.1-1.1.4-1.7.4-.1-.3-.1-.3-.5-.3-1.3.1-2.5.6-3.8-.2h-.4c.3-.4.9-.7 1.2-.4.2.2.3.4.5.2.1-.2.2-.5.1-.7 0-.1-.4-.3-.6-.2-.5.3-.9-.2-1.4-.2.4-.4.9-.4 1.4-.5v-.1s.1 0 .1.1c.5 0 1.1 0 1.6-.1.2 0 .5 0 .5-.3s-.3-.2-.5-.2c-.7 0-1.3.4-2 .1.2-.1.7-.2.4-.6-.3-.4-.4 0-.6.1v.1s0-.1-.1-.1c-1.1-.2-2.1-.1-3.2.1-1.4.4-2.7-.3-4.2 0-1 .2-2.2 0-3.3.2-1.7.3-3.4.1-5.2.2-2.4.2-4.7.4-7.1.6l-8.1.6c-.5 0-.6-.1-.6-.6.2-1 .3-1.9.4-2.9.3-4.3 1-8.5 1.7-12.7.3-1.5.9-3 .6-4.6-.2-.9 0-1.8.2-2.6.1-.3.1-.6.2-.9.8-4.1 1.5-8.2 2.3-12.3l.1-.1v.1c.1.1.1.2.2.4 0 .2.1.4.3.3.3-.1.4-.3.3-.6-.2-.4 0-.7.2-1 .5-.6.5-1.1-.2-1.6-.3-.2-.4-.4-.4-.8-.1.1-.1.3-.2.4 0-.1 0-.3.1-.4s.1-.2.2-.3c1 .8.6-.2.7-.6.1-.2 0-.6.1-.8.3-.5.1-1.3.7-1.6.5-.3.6-.6.7-1.1.7-3.4 1.3-6.9 1.8-10.3 0-.3.1-.7.2-1 .6-1.4.6-2.9 1-4.4.1-.4.1-.9.1-1.4-.1-1.3-.8-2-2.1-1.8-.2 0-.3 0-.5-.1-1.3-.8-2.7-.6-4.1-.9-1.1-.2-2.2-.1-3.3-.4-.7-.2-1.4.1-2 .3-.4.1.1.7-.1 1v.1c-.6 1.3-.8 2.8-1 4.2-.3 2.1-.4 4.3-.7 6.4-.7 5.9-1.5 11.7-2.4 17.4-.3 1.8-.2 3.8-1.2 5.4-.2.2-.3.5-.3.8-.6 4.2-1.3 8.5-1.9 12.7-.9 5.8-1.8 11.6-2.6 17.3-.1.8-.6 1.2-1.4 1.3-.5.1-.9.1-1.2.5-.8 1.1-.2 3.1 1.1 3.6-.1.3-.8 0-.6.5.2.8-.4 1.6.3 2.3.1.1-.1.4 0 .5.2.3-.3.8.1 1 .7.4 1.4 1 2.3.8 2.3-.6 4.7-.2 7-.3 1 0 1.9.2 2.3-1v-.1l.1.1h.1c1.6.1 3.2-.1 4.8-.4h2c.6-.3 1.4 0 1.9-.5h1.5c.4.1.8.1 1.1-.3h.1c.2.3.4.3.7.3.9-.1 1.9-.5 2.8-.2.3.1.3-.2.2-.4.4.2.7.1 1-.1 0 .2 0 .4.3.3.6-.1 1.2-.4 1.7-.8.2 0 .5 0 .7-.2h.3c.4.5.6-.2.9-.2.2-.1.5-.2.5-.4 0-.3-.4-.2-.6-.2h-.6v-.2h-.1c.2-.2.5-.1.8-.1.7-.1.1-.6.3-.8-.3 0-.5-.2-.4-.5s.4-.3.7-.3c1.2-.1 2.3-.2 3.5-.3.1 0 .1-.1.2-.1h-.1c.5.1 1 0 1.5-.1.7-.1 1.3-.2 2-.2.5-.1 1.1.2 1.6-.2.6-.2 1.2.1 1.8-.2.3.1.6.2.8-.1.1-.1.1-.2.1-.4-.1-.3-.4-.2-.6-.2-.4 0-.3.4-.5.6-.4-.4-.8-.5-1.3-.2-.2.1-.4.2-.6.1l.1.1s-.1 0-.1-.1c-.3-.4-.3-.4-.8-.1h-.3c-.3 0-.5-.1-.7.2-.2 0-.4.1-.5-.1v-.2c.2-.1.3-.3.3-.5h-.1c.6-.3 1.3-.5 2-.5 1 0 1.9.1 2.8-.3l.1-.1v.1c.8-.1 1.6.1 2.3-.4.4-.3 1-.4 1.5.1 1.1.3 2.1-.5 3.2-.2.2-.5.1-.8-.5-.7z"/><path class="st0" d="M-367.8 427c0 .4.4.3.6.2.5-.1 1-.2 1.4.3.1.2.4.1.4-.2-.1-.3-.3-.6-.7-.6h-1.2c-.1 0-.5 0-.5.3zM-396.8 395.8c.4-.5.6-1 .5-1.6 0-.1-.1-.3-.3-.3-.1 0-.2.1-.2.1.3.7-.2 1.2 0 1.8zM-367.1 425.8c.8-.1 1.6 0 2.3-.3-.8-.3-1.6-.1-2.3.3zM-377.9 434.2c-.2 0-.4.1-.4.3 0 .3.2.2.4.2.2-.1.5.1.5-.3-.1-.2-.3-.2-.5-.2zM-382.4 399.8h-.2c0 .9-.1 1.8-.1 2.6.5-.8.2-1.7.3-2.6zM-381.4 415c-.1 0-.3.2-.4.4-.1.3-.1.6-.2 1 .3-.2.4-.5.6-.5s.4.1.4-.3c-.1-.3-.1-.6-.4-.6zM-377.8 415.7c-.1 0-.1.4-.1.5.2.5.7.2 1 .1-.2-.2-.4-.7-.9-.6zM-382.6 414.8c-.1-.2-.2-.4-.4-.6 0 .3-.1.5-.1.7 0 .3.2.4.4.5.2.1.4-.1.4-.2.1-.4-.2-.3-.3-.4zM-345.8 422.5v.4c-.1-.1 0-.3 0-.4zM-343.4 372.8s0-.1 0 0c.1-.1.1-.1 0 0 0-.1 0-.1 0 0zM-345.8 422.2c0 .1 0 .1 0 0 0 .1 0 .1 0 0zM-345.8 422c0-.3.1-.5.1-.8 0 .2-.1.5-.1.8zM-345.6 419.9v-.4c.1.2.1.3 0 .4zM-347.5 423.6c-.1.4 0 .9-.2 1.3-.1-.3 0-.6-.2-.9v-.3c0-.3 0-.6.3-.6.4-.1.2.2.1.5z"/><path class="st0" d="M-333.3 365.5c-1.1-1.9-2.3-3.7-4-5.2-.6-.5-1.2-1-2-1.2-.3-.1-.7-.3-.8 0-.3.6-.6.2-.8 0-1.5-1-1.5-1-2.7.4-.2.2-.3.4-.5.6h.1c-.5.8-.9 1.6-1.4 2.4-.4 1.1-1.2 1.9-1.7 3-.3.5-.9.8-.9 1.4-.3 1-.8 1.8-1.3 2.7-.2.3-.4.4-.7.2h-.1c-.2.4-.2.8-.2 1.2 0 .2-.1.6-.5.3-.1.1-.2.3-.3.4s-.1.4-.4.3 0-.4 0-.6h-.4v-.2s-.1.1-.1.2c-1 .6-1.2 1.7-1.9 2.6-.1.1-.1.4-.1.6.1.5.1.6-.3.5-.2-.1-.3 0-.4.2-.4.7-.8 1.3-1.1 2-.1.2-.8.7.2.8.1 0 .1.2 0 .3-.2.5-.6.4-.9.1-.8-.7-.7-1.7-1-2.5-.5-1.7-.7-3.6-1.1-5.3-.8-3.6-1.7-7.1-4.7-9.5-1.1-.9-2.2-1.5-3.6-1.9-.2 0-.5-.2-.5 0-.2.6-.4.2-.7.1-.5-.5-.9-1.1-1.6-1.2-1-.2-1.5.6-2.2 1.1s-.8 1.2-.6 1.8c.2 1 0 1.8-.4 2.7-.8 1.7-1.8 3.2-2.2 5.1-.6 3.7-1.2 7.5-2.2 11.1-1.4 5.2-1.9 10.5-3.1 15.7-.2 1 0 2-.3 2.9-.4 1-.5 2.1-.4 3.1 0 .5-.5.3-.4.7.4 1.7-.9 3-1 4.6 0 .4-.1 1.1-.5 1.5-.1-.1-.2-.2-.2-.4 0-.1.1-.2.1-.3.3-1.4.3-2.8.3-4.2-.2.8-.2 1.6-.3 2.4-.1.6-.1 1.2-.2 1.8-.4.1-.1.5-.2.7-.3 1.3 0 2.7-.9 3.8v.3h.1c-.5.3-.3.8-.4 1.2 0 .1.1.3.2.3.2 0 .3-.1.4-.3.1-.4.2-.7.3-1.1.1.2.2.5.6.1.1-.1.5 0 .5.4 0 .2-.2.6.3.5.4-.1.3-.4.2-.6-.5-.7.6-.8.6-1.3.6 0 .4.6.6.9.1.2.2.3.2.5-.2.7 0 1 .8 1 .2 0 .4.1.3.3-.2.8.7 0 .7.5.4 0 .2-.4.3-.5 0-.1 0-.3.2-.3.2.3.5.5.3 1-.1.2.1.3.2.3.3-.3.8.1 1-.3.1-.1.2-.3.4-.2.2.1.2.2.1.4-.1.4.3.6.5.7.4.1.2-.4.4-.5.2.2.4.3.7.5.1.1.4 0 .3-.1-.4-.9.4-.6.8-.8-.7-.2-.5-.8-.7-1.2-.1-.2.1-.5.3-.4.6.2 1-.2 1.7-.4-.8-.3-.9-.7-.6-1.3.2.1 0 .6.4.4.3-.1.4-.3.4-.6.1-1.1.3-2.3.4-3.4.5-3.8 1-7.5 1.5-11.2.2-1.1-.1-2.3.2-3.3.6-2.2.7-4.4 1.1-6.6.6-2.8 1-5.6 1.4-8.5 0-.2.1-.5.4-.5.4 0 .3.3.3.5 0 .4 0 .9.1 1.3.5 2.6 1.5 5 2.6 7.3.4.8.6 1.6.6 2.4.1 1.2.3 2.4.7 3.5.2.5.4 1 .9 1.2 1.3.6 2.4 1.5 3.8 1.6 1 .1 2 .4 2.7-.6.1 0 .2-.1.2-.2.1-.4.1-.9.5-1.1.3-.2-.3-.5.1-1 .5-.4 1-.8 1.4-1.3.1-.2.2-.4.3-.5-.4-.1-.5.2-.7.4-.1.2-.2.4-.5.2-.2-.2-.1-.4 0-.5.2-.3.4-.5.6-.8.6-.9 1.1-1.8 1.8-2.6-.3-.1-.4-.2-.2-.5 1.1-1.8 2.4-3.5 3.1-5.5.1-.3.5-.4.7-.6.4-.8.9-1.5 1.2-2.3.1-.7.4-1.2 1-1.6l.9-1.5c.1-.2.2-.4.3-.5.1-1 .9-1.7 1.3-2.7-.2 0-.3 0-.3-.3.2-.8.5-1.6 1-2.3.3.2.3.5.1.8.3.6-.2 1-.2 1.6v.2c0 .6-.1 1.1-.5 1.5-.5.6-.2 1.4-.6 2 .2.5-.2.8-.4 1.3l-.1.1c.3 1.2 0 2.4-.2 3.6-.6 3.6-1.1 7.1-1.7 10.7-.3 2.2-.6 4.4-1 6.6v.6c.1-.2.1-.4.2-.6.2.7.4 1.3-.2 1.9 0-.1-.1-.2-.1-.3 0 .1 0 .2-.1.3-.1.8-.2 1.5-.3 2.3-.1.8-.2 1.6-.2 2.4 0 1.4.3 2.9-.1 4.4-.3 1.4-.5 2.8-.1 4.3v.1c.1 0 .1-.1.2-.1-.2 1.4.2 2.8 0 4.2 0 .4 0 .7-.5.8v-.2c0 .1-.1.2-.1.2 0 .9.3 1.8.1 2.8-.2.9-.2 1.9-.2 2.8h.2c.1-.1.2-.3.3-.4.3.2.3.2.2.9 0 .7-.2 1.4.3 2.1.1-.8.3-1.4.6-2.1.3.2.1.6.5.7.3-.2 0-.6.3-.8.1 0 .1-.1.1-.1 0-.2-.1-.4.2-.5 0-.4.1-.8.1-1.2v-.4c0-.1 0-.3.1-.4v-.3c0-.3 0-.5.1-.8 0-.3.1-.6.1-.9v-.2c0-.2 0-.4.1-.6.1-1.1.1-2.1.5-3.1h.3c-.2 1.3-.4 2.6-.6 3.8-.1.6-.2 1.3-.2 1.9v.4c-.1.6.7 1.1.2 1.7v.9c1-.5.8-1.4 1-2.1 0-.2.1-.5.1-.7 0-.3.1-.5.1-.8.2-1.6.5-3.2.7-4.8 0-.6.1-1.2.2-1.7 0-.3.1-.6.1-.9 0-.2-.1-.7.3-.6s.2.5.1.7c-.4 2.5-.7 5.1-1.1 7.6-.1.6-.2 1.1-.2 1.7l.1.1c.4-.6.6-1.2.7-2 .1-1.7.7-3.3.9-5.1 0-.1.1-.1.1-.1 0-.3 0-.5.2-.8.3.1.3.3.5.5-.1-.6-.3-1.3.1-1.9.2-.4.3-.8.2-1.1-.1-.6.1-.9.5-1.2v-.1c-.5-.6.1-1.3.2-1.9 0-.2.9-.3 1.3-.6.2.4-.7.6-.2.9.4.2.7-.1.9-.6 0-.1.1-.2.1-.2.1-.2.2-.4.3-.7.8-2.9.8-5.8 1.2-8.8.3-2.4.6-4.9.9-7.3.2-2 .7-3.9.7-5.9.1-2 .3-4 .6-5.9.7-4.1 1.5-8.2 1.4-12.5 0-.3.1-.5.1-.8.1-.5.5-1.3.1-2zm-9.1 2.4c-.7.7-.9 1.7-1.3 2.5-.7 1.4-1.5 2.7-2.4 4-.7 1-1 2.3-2 3.2-.5.5-.5 1.5-.9 2.1-.2.3-.3.7-.7.7 0-1 .6-1.8 1-2.7.3-.8.9-1.6 1.2-2.4.1-.3.5-.2.6-.5.6-1.4 1.4-2.8 2.2-4.2.5-.8.8-1.7 1.4-2.3.5-.4.3-.8.6-1.2.3.3.7.5.3.8zM-281.9 391.6c.2-.8-.2-1.5-.2-2.2-.1-2-.7-3.9-1-5.9-.1-.5.1-1.1-.3-1.6-1.1-1.8-1.8-3.7-2.7-5.5 0-.1-.1-.1-.1-.2-.6-.3-1.2-.7-1.6-1.4-.5-.5-.8-1.1-1.2-1.6-.2-.2-.4-.4-.7-.5-.3-.1-.5-.4-.7-.6-2-1.8-4.2-3.1-6.8-3.7-3.6-.9-7.1-.1-10.6.7-1.8.4-3.6 1-5.3 1.8-.4.2-.7.6-1.1.6-1.4-.1-2 .9-3 1.6l-.2.2c.1-.1.3-.2.4-.2-.1.2-.1.3.2.4.7-.5 1.6-.6 2.4-.6.5 0 1-.2 1.3-.4.6-.5 1.3-.1 1.9-.3.2 0 .5 0 .5.3 0 .2-.2.4-.4.4-1.3 0-2.3 1-3.4 1.5 0 0 0 .1-.1.1-1.5-.8-1.5 1.1-2.4 1.3-.3.1-.5.3-.8.5.1.6.3 1.1-.6 1.5-.7.3-1.1 1.3-1.6 2-.6 1.1-1.2 2.2-2 3.2-.9 1.1-1.5 2.2-2.2 3.4-.7 1.3-1.1 2.7-1.5 4.1-.1.2-.1.4-.3.6 0 .5-.1 1-.5 1.4-.3.3-.7.7-.3 1.3.2.3-.3.5-.3.7 0 .5 0 1-.1 1.5.2.4.1.7-.2 1h-.2c-.2-.4-.4-.7-.2-1.1.1-.3.2-.5.2-.7v-.2V395c-.4-2 .6-3.7.9-5.5.3-.9.2-1.8.7-2.6.2-1.9 1.8-3.2 2.3-5 .1-.3.5-.6.8-.9 0-.3.6-.8-.3-.8-.3 0 0-.3 0-.4-.1-.1-.2-.1-.4-.2l.1-.1c-.1 0-.2 0-.3.1-1.2 1.6-2.3 3.3-3.1 5.1-.2.3-.2.6-.2.9 0 0 0-.1.1-.1.1-.3.1-.6.4-.7 0 .3-.3.7.3.9.2.1 0 .3-.1.5l-.9 2.7c-.1.3-.1.6-.5.6h-.4v-.1c-.1 0-.2.1-.3.1-.2.3-.3.7-.4 1.1-.2 1.2-.5 2.5-.7 3.7-.2 1.5-.6 2.9-.5 4.4.1 2.3.4 4.6.9 6.9.5 2 .9 3.9 1.8 5.8.4.9.9 1.7 1.3 2.6.4 1 .9 2.1 1.7 2.9 1.1 1.2 1.8 2.7 3.3 3.5.1.1.1.2.1.3-.3.8.3.9.8 1.2.6.4 1.3.6 2 1 .7.3 1.3.8 1.9 1.1.4.2.9.4 1.1-.3.1-.4.4-.3.6-.2.8.2 1.6.4 2.4.4.9.1 1.9.2 2.7.1.8-.1 1.5-.1 2.2.2.4.1.7.2 1.1 0 .6-.3 1.3-.1 1.9-.2.9-.1 1.8-.2 2.7-.5.5-.2 1.1-.5 1.6-.6 1.4-.3 2.6-1 3.8-1.5.9-.3 1.8-.8 2.4-1.5 1.2-1.2 2.6-2.2 3.7-3.4.3-.3.5-.6.6-.9.1-.4.3-.7.6-.9.7-.6 1-1.4 1.3-2.2 1.2-2 2-5 2-5.3 0 0 0-.1-.4-.1-.8 1.9-1.6 3.2-2.1 4-.1-.1-.1-.3-.1-.5-.1-1.1.6-1.8 1.1-2.6.2-.3.3-.6.4-.9 2.2-3.4 3-9.7 3.1-10.2l-.2-.5c-1.1 4.8-2.2 7.4-2.8 8.7 0-.1 0-.1-.1-.2h-.2c1.2-2.7 1.1-4.2 1.1-4.2s.1-.2-.4-.2c-.7 2.3-1.5 3.9-1.9 4.5-.1.1-.2.2-.4.2.1-.9.7-1.6.8-2.4.2-1.5.3-3 1.6-4 .1-.1.2-.3.2-.4-.3-1.6.4-3 .7-4.4h-.1c-.2-.1 0-.2 0-.3 0 0 0-.1.1-.1.2-.2.6-.1.8-.3 0-.1.1 0 .1-.1s-.1-.1-.1-.1c-.3-.4-.3-.8 0-1.2.4.1.2.6.4.8.1.4 0 .7-.2 1.1h-.2c.1.6.3 1.1 1 1.1-.1.6-.1.5 0 .8.1.1.1.1.2-.3 0 .4-.1.4.3.8.1.1.4.3.5.2h.1c.3-1.9.6-3.3.4-4.8zm-10.1 10.1c-.3.5 0 1-.2 1.4-.5 1.3-1 2.7-1.7 4-.4.8-1 1.4-1.8 1.8s-1.7 1-2.3 1.7c-.4.4-.9.7-1.4.7-.7.1-1.3.3-1.8.5-1 .5-2 .4-3 .6-1.1.3-2.2.5-3.3.7-.4.1-.4.7-.8.8h.3c-1.2.7-2.4.4-3.5 0-.6-.2-1.1-.7-1.6-1.1-.3-.1-.5-.2-.7-.4-.2-.2-.4-.5-.5-.3-.9.7-1.5-.1-2.1-.5-.5-.4-1-.9-1.4-1.4s-.7-1-.6-1.7c.1-.6-.3-1.2-.6-1.7-2-2.9-1.9-6.2-2.2-9.5-.2-2.7.7-5 1.6-7.4.2-.5.4-1 .5-1.6.2-1 1-1.7 1.5-2.5.2-.5.4-1.1 1-1.3.2-.3.5-.6.7-.8.2-.4.4-.7.8-.8 0 0 .1 0 .1-.1 1.5-1.6 3.5-2.5 5.3-3.6.8-.5 1.9-.8 3-.5.8.3 1.8.1 2.8.1 3.2 0 5.8 1.2 8.2 3.3 1 .9 1.8 2 2.5 3.1.7 1.2.9 2.6 1.2 4 .4 2.2.8 4.3 1 6.5.1 1.9.1 4.1-1 6z"/></svg>